{
DisplayStrings = (
"Om Nom Nom",
"Papi Patagonia",
Quamczucha,
"Robin  Williams",
Sobiepan,
"Tkiru Riru",
"Under My Umbrella",
Vkrotce,
Wbijaj,
Xylofon,
"Yummy Yo Yo",
"Zobacz Zagrywki"
);
copyright = "Copyright \U00A9 2016 by Beata Kurek. All rights reserved.";
date = "2016-09-13 21:53:53 +0000";
designer = "Beata Kurek";
familyName = "Bajaderka";
fontMaster = (
{
ascender = 900;
capHeight = 1000;
descender = "-500";
id = "248CDC77-21EA-41B6-93B8-E98A9208AB16";
xHeight = 660;
}
);
glyphs = (
{
glyphname = A;
lastChange = "2016-09-16 03:47:14 +0200";
layers = (
{
layerId = "248CDC77-21EA-41B6-93B8-E98A9208AB16";
name = Regular;
paths = (
{
closed = 1;
nodes = (
"867 97 OFFCURVE",
"758 12 OFFCURVE",
"714 12 CURVE SMOOTH",
"666 12 OFFCURVE",
"768 223 OFFCURVE",
"884 446 CURVE",
"934 445 OFFCURVE",
"984 442 OFFCURVE",
"1034 435 CURVE",
"1045 443 OFFCURVE",
"1056 479 OFFCURVE",
"924 479 CURVE SMOOTH",
"916 479 OFFCURVE",
"908 479 OFFCURVE",
"901 479 CURVE",
"1015 699 OFFCURVE",
"1137 923 OFFCURVE",
"1137 965 CURVE SMOOTH",
"1137 983 OFFCURVE",
"1133 993 OFFCURVE",
"1128 999 CURVE",
"1141 1004 OFFCURVE",
"1152 1008 OFFCURVE",
"1162 1008 CURVE SMOOTH",
"1169 1008 OFFCURVE",
"1177 1018 OFFCURVE",
"1163 1018 CURVE SMOOTH",
"1050 1018 OFFCURVE",
"808 723 OFFCURVE",
"575 453 CURVE",
"441 432 OFFCURVE",
"358 405 OFFCURVE",
"367 396 CURVE",
"399 401 OFFCURVE",
"466 414 OFFCURVE",
"552 425 CURVE",
"363 207 OFFCURVE",
"184 13 OFFCURVE",
"88 13 CURVE SMOOTH",
"-68 13 OFFCURVE",
"93 414 OFFCURVE",
"288 465 CURVE",
"275 431 OFFCURVE",
"292 417 OFFCURVE",
"307 417 CURVE SMOOTH",
"343 417 OFFCURVE",
"352 479 OFFCURVE",
"297 479 CURVE SMOOTH",
"66 479 OFFCURVE",
"-113 0 OFFCURVE",
"87 0 CURVE SMOOTH",
"200 0 OFFCURVE",
"394 205 OFFCURVE",
"588 430 CURVE",
"662 439 OFFCURVE",
"746 446 OFFCURVE",
"834 447 CURVE",
"720 216 OFFCURVE",
"632 1 OFFCURVE",
"714 1 CURVE SMOOTH",
"830 1 OFFCURVE",
"960 210 OFFCURVE",
"903 210 CURVE"
);
},
{
closed = 1;
nodes = (
"808 687 OFFCURVE",
"1002 927 OFFCURVE",
"1114 991 CURVE",
"1089 926 OFFCURVE",
"960 698 OFFCURVE",
"850 478 CURVE",
"762 475 OFFCURVE",
"682 468 OFFCURVE",
"612 458 CURVE"
);
}
);
width = 1015.51;
}
);
unicode = 0041;
},
{
glyphname = B;
lastChange = "2016-09-16 03:53:37 +0200";
layers = (
{
layerId = "248CDC77-21EA-41B6-93B8-E98A9208AB16";
name = Regular;
paths = (
{
closed = 1;
nodes = (
"884 927 OFFCURVE",
"673 360 OFFCURVE",
"326 360 CURVE SMOOTH",
"274 360 OFFCURVE",
"317 431 OFFCURVE",
"420 431 CURVE SMOOTH",
"594 431 OFFCURVE",
"432 13 OFFCURVE",
"271 13 CURVE SMOOTH",
"194 13 OFFCURVE",
"189 104 OFFCURVE",
"259 181 CURVE SMOOTH",
"336 265 OFFCURVE",
"449 334 OFFCURVE",
"568 334 CURVE SMOOTH",
"655 334 OFFCURVE",
"669 290 OFFCURVE",
"668 283 CURVE",
"690 283 OFFCURVE",
"688 344 OFFCURVE",
"575 344 CURVE SMOOTH",
"448 344 OFFCURVE",
"334 278 OFFCURVE",
"253 191 CURVE SMOOTH",
"170 101 OFFCURVE",
"170 -4 OFFCURVE",
"268 -4 CURVE SMOOTH",
"474 -4 OFFCURVE",
"659 445 OFFCURVE",
"420 445 CURVE SMOOTH",
"299 445 OFFCURVE",
"253 348 OFFCURVE",
"329 348 CURVE SMOOTH",
"729 348 OFFCURVE",
"938 941 OFFCURVE",
"536 941 CURVE SMOOTH",
"99 941 OFFCURVE",
"-163 528 OFFCURVE",
"-195 258 CURVE SMOOTH",
"-212 118 OFFCURVE",
"-170 1 OFFCURVE",
"-83 1 CURVE SMOOTH",
"171 1 OFFCURVE",
"255 754 OFFCURVE",
"550 1012 CURVE SMOOTH",
"614 1067 OFFCURVE",
"754 1108 OFFCURVE",
"787 1068 CURVE",
"799 1068 OFFCURVE",
"800 1104 OFFCURVE",
"754 1104 CURVE SMOOTH",
"287 1104 OFFCURVE",
"146 17 OFFCURVE",
"-83 17 CURVE SMOOTH",
"-162 17 OFFCURVE",
"-203 127 OFFCURVE",
"-184 260 CURVE SMOOTH",
"-146 521 OFFCURVE",
"121 927 OFFCURVE",
"531 927 CURVE SMOOTH"
);
}
);
width = 674;
}
);
unicode = 0042;
},
{
glyphname = C;
lastChange = "2016-09-16 04:04:06 +0200";
layers = (
{
layerId = "248CDC77-21EA-41B6-93B8-E98A9208AB16";
name = Regular;
paths = (
{
closed = 1;
nodes = (
"22 0 OFFCURVE",
"-59 102 OFFCURVE",
"-59 267 CURVE SMOOTH",
"-59 616 OFFCURVE",
"249 1000 OFFCURVE",
"558 1000 CURVE SMOOTH",
"878 1000 OFFCURVE",
"645 388 OFFCURVE",
"119 388 CURVE SMOOTH",
"-278 388 OFFCURVE",
"-237 736 OFFCURVE",
"58 736 CURVE SMOOTH",
"330 736 OFFCURVE",
"447 539 OFFCURVE",
"372 539 CURVE",
"366 600 OFFCURVE",
"260 717 OFFCURVE",
"58 717 CURVE SMOOTH",
"-228 717 OFFCURVE",
"-242 407 OFFCURVE",
"116 407 CURVE SMOOTH",
"625 407 OFFCURVE",
"838 984 OFFCURVE",
"570 984 CURVE SMOOTH",
"291 984 OFFCURVE",
"-16 590 OFFCURVE",
"-16 267 CURVE SMOOTH",
"-16 121 OFFCURVE",
"42 17 OFFCURVE",
"144 17 CURVE SMOOTH",
"299 17 OFFCURVE",
"462 174 OFFCURVE",
"531 291 CURVE",
"588 306 OFFCURVE",
"402 0 OFFCURVE",
"139 0 CURVE SMOOTH"
);
}
);
width = 584;
}
);
unicode = 0043;
},
{
glyphname = D;
lastChange = "2016-09-16 04:04:42 +0200";
layers = (
{
layerId = "248CDC77-21EA-41B6-93B8-E98A9208AB16";
name = Regular;
paths = (
{
closed = 1;
nodes = (
"-8 291 OFFCURVE",
"224 1014 OFFCURVE",
"802 1014 CURVE SMOOTH",
"1314 1014 OFFCURVE",
"1036 0 OFFCURVE",
"468 0 CURVE SMOOTH",
"286 0 OFFCURVE",
"241 81 OFFCURVE",
"97 91 CURVE SMOOTH",
"-47 100 OFFCURVE",
"12 14 OFFCURVE",
"163 14 CURVE SMOOTH",
"490 14 OFFCURVE",
"648 1116 OFFCURVE",
"1116 1116 CURVE SMOOTH",
"1161 1116 OFFCURVE",
"1161 1079 OFFCURVE",
"1148 1079 CURVE",
"1115 1120 OFFCURVE",
"975 1079 OFFCURVE",
"911 1023 CURVE SMOOTH",
"616 765 OFFCURVE",
"492 1 OFFCURVE",
"162 1 CURVE SMOOTH",
"-1 1 OFFCURVE",
"-65 105 OFFCURVE",
"85 105 CURVE SMOOTH",
"232 105 OFFCURVE",
"307 12 OFFCURVE",
"476 12 CURVE SMOOTH",
"961 12 OFFCURVE",
"1276 1000 OFFCURVE",
"797 1000 CURVE SMOOTH",
"254 1000 OFFCURVE",
"34 308 OFFCURVE",
"204 308 CURVE SMOOTH",
"389 308 OFFCURVE",
"565 732 OFFCURVE",
"536 792 CURVE",
"642 792 OFFCURVE",
"444 291 OFFCURVE",
"212 291 CURVE SMOOTH"
);
}
);
width = 976;
}
);
unicode = 0044;
},
{
glyphname = E;
lastChange = "2016-09-16 04:11:45 +0200";
layers = (
{
layerId = "248CDC77-21EA-41B6-93B8-E98A9208AB16";
name = Regular;
paths = (
{
closed = 1;
nodes = (
"310 771 OFFCURVE",
"319 677 OFFCURVE",
"495 677 CURVE SMOOTH",
"684 677 OFFCURVE",
"742 783 OFFCURVE",
"742 850 CURVE SMOOTH",
"742 934 OFFCURVE",
"634 998 OFFCURVE",
"490 998 CURVE SMOOTH",
"265 998 OFFCURVE",
"101 867 OFFCURVE",
"101 720 CURVE SMOOTH",
"101 601 OFFCURVE",
"214 537 OFFCURVE",
"263 532 CURVE",
"110 516 OFFCURVE",
"-80 403 OFFCURVE",
"-80 221 CURVE SMOOTH",
"-80 95 OFFCURVE",
"24 -10 OFFCURVE",
"210 -10 CURVE SMOOTH",
"513 -10 OFFCURVE",
"592 185 OFFCURVE",
"592 265 CURVE SMOOTH",
"592 328 OFFCURVE",
"550 347 OFFCURVE",
"539 336 CURVE",
"558 316 OFFCURVE",
"562 296 OFFCURVE",
"562 262 CURVE SMOOTH",
"562 163 OFFCURVE",
"445 7 OFFCURVE",
"235 7 CURVE SMOOTH",
"33 7 OFFCURVE",
"-33 135 OFFCURVE",
"-33 224 CURVE SMOOTH",
"-33 388 OFFCURVE",
"149 492 OFFCURVE",
"293 521 CURVE",
"347 510 OFFCURVE",
"542 483 OFFCURVE",
"542 549 CURVE SMOOTH",
"542 572 OFFCURVE",
"441 586 OFFCURVE",
"300 544 CURVE",
"233 553 OFFCURVE",
"147 616 OFFCURVE",
"147 720 CURVE SMOOTH",
"147 848 OFFCURVE",
"297 983 OFFCURVE",
"485 983 CURVE SMOOTH",
"670 983 OFFCURVE",
"729 896 OFFCURVE",
"729 849 CURVE SMOOTH",
"729 783 OFFCURVE",
"654 697 OFFCURVE",
"493 697 CURVE SMOOTH",
"437 697 OFFCURVE",
"358 720 OFFCURVE",
"319 761 CURVE SMOOTH"
);
},
{
closed = 1;
nodes = (
"531 513 OFFCURVE",
"360 528 OFFCURVE",
"317 538 CURVE",
"418 565 OFFCURVE",
"531 561 OFFCURVE",
"531 547 CURVE SMOOTH"
);
}
);
width = 622;
}
);
unicode = 0045;
},
{
glyphname = F;
lastChange = "2016-09-14 00:58:17 +0200";
layers = (
{
layerId = "248CDC77-21EA-41B6-93B8-E98A9208AB16";
name = Regular;
paths = (
{
closed = 1;
nodes = (
"-86 409 OFFCURVE",
"-245 12 OFFCURVE",
"-92 12 CURVE SMOOTH",
"90 12 OFFCURVE",
"340 857 OFFCURVE",
"528 881 CURVE SMOOTH",
"540 883 OFFCURVE",
"546 875 OFFCURVE",
"536 874 CURVE SMOOTH",
"405 857 OFFCURVE",
"149 0 OFFCURVE",
"-93 0 CURVE SMOOTH",
"-290 0 OFFCURVE",
"-113 473 OFFCURVE",
"115 473 CURVE SMOOTH",
"169 473 OFFCURVE",
"160 412 OFFCURVE",
"125 412 CURVE SMOOTH",
"110 412 OFFCURVE",
"93 426 OFFCURVE",
"106 459 CURVE"
);
},
{
closed = 1;
nodes = (
"-143 988 OFFCURVE",
"-214 904 OFFCURVE",
"-214 852 CURVE SMOOTH",
"-214 680 OFFCURVE",
"230 709 OFFCURVE",
"288 814 CURVE",
"323 814 OFFCURVE",
"265 697 OFFCURVE",
"10 697 CURVE SMOOTH",
"-112 697 OFFCURVE",
"-224 740 OFFCURVE",
"-224 852 CURVE SMOOTH",
"-224 976 OFFCURVE",
"-69 1028 OFFCURVE",
"111 1028 CURVE SMOOTH",
"347 1028 OFFCURVE",
"822 863 OFFCURVE",
"929 978 CURVE",
"949 974 OFFCURVE",
"928 923 OFFCURVE",
"776 923 CURVE SMOOTH",
"457 923 OFFCURVE",
"278 988 OFFCURVE",
"100 988 CURVE SMOOTH"
);
},
{
closed = 1;
nodes = (
"166 579 OFFCURVE",
"350 610 OFFCURVE",
"498 610 CURVE SMOOTH",
"572 610 OFFCURVE",
"570 587 OFFCURVE",
"564 578 CURVE",
"501 590 OFFCURVE",
"272 580 OFFCURVE",
"159 550 CURVE",
"150 550 OFFCURVE",
"146 555 OFFCURVE",
"151 560 CURVE SMOOTH"
);
}
);
width = 600;
}
);
unicode = 0046;
},
{
glyphname = G;
lastChange = "2016-09-20 00:54:05 +0200";
layers = (
{
layerId = "248CDC77-21EA-41B6-93B8-E98A9208AB16";
name = Regular;
paths = (
{
closed = 1;
nodes = (
"48 297 OFFCURVE",
"-40 9 OFFCURVE",
"85 9 CURVE SMOOTH",
"272 9 OFFCURVE",
"468 696 OFFCURVE",
"634 739 CURVE SMOOTH",
"645 742 OFFCURVE",
"651 736 OFFCURVE",
"642 732 CURVE SMOOTH",
"514 674 OFFCURVE",
"317 0 OFFCURVE",
"88 0 CURVE SMOOTH",
"-87 0 OFFCURVE",
"18 341 OFFCURVE",
"225 341 CURVE SMOOTH",
"273 341 OFFCURVE",
"267 284 OFFCURVE",
"232 284 CURVE SMOOTH",
"216 284 OFFCURVE",
"204 306 OFFCURVE",
"220 331 CURVE"
);
},
{
closed = 1;
nodes = (
"707 741 OFFCURVE",
"507 369 OFFCURVE",
"256 369 CURVE SMOOTH",
"-131 369 OFFCURVE",
"239 1125 OFFCURVE",
"639 1125 CURVE SMOOTH",
"724 1125 OFFCURVE",
"792 1087 OFFCURVE",
"792 1010 CURVE SMOOTH",
"792 892 OFFCURVE",
"602 704 OFFCURVE",
"310 704 CURVE SMOOTH",
"28 704 OFFCURVE",
"-63 960 OFFCURVE",
"177 960 CURVE SMOOTH",
"398 960 OFFCURVE",
"492 800 OFFCURVE",
"431 800 CURVE",
"427 850 OFFCURVE",
"341 945 OFFCURVE",
"177 945 CURVE SMOOTH",
"-61 945 OFFCURVE",
"65 719 OFFCURVE",
"308 719 CURVE SMOOTH",
"598 719 OFFCURVE",
"778 904 OFFCURVE",
"778 1010 CURVE SMOOTH",
"778 1075 OFFCURVE",
"729 1102 OFFCURVE",
"662 1102 CURVE SMOOTH",
"301 1102 OFFCURVE",
"-73 381 OFFCURVE",
"256 381 CURVE SMOOTH",
"496 381 OFFCURVE",
"675 717 OFFCURVE",
"639 741 CURVE"
);
}
);
width = 472;
}
);
unicode = 0047;
},
{
glyphname = H;
lastChange = "2016-09-16 03:24:27 +0200";
layers = (
{
layerId = "248CDC77-21EA-41B6-93B8-E98A9208AB16";
name = Regular;
paths = (
{
closed = 1;
nodes = (
"-52 1089 OFFCURVE",
"-368 470 OFFCURVE",
"-120 470 CURVE SMOOTH",
"34 470 OFFCURVE",
"190 768 OFFCURVE",
"117 747 CURVE",
"125 680 OFFCURVE",
"-14 478 OFFCURVE",
"-117 478 CURVE SMOOTH",
"-321 478 OFFCURVE",
"29 1076 OFFCURVE",
"240 1076 CURVE SMOOTH",
"300 1076 OFFCURVE",
"136 731 OFFCURVE",
"260 731 CURVE SMOOTH",
"443 731 OFFCURVE",
"700 1070 OFFCURVE",
"618 1070 CURVE SMOOTH",
"436 1070 OFFCURVE",
"67 12 OFFCURVE",
"-120 12 CURVE SMOOTH",
"-274 12 OFFCURVE",
"-115 409 OFFCURVE",
"78 459 CURVE",
"65 426 OFFCURVE",
"81 412 OFFCURVE",
"97 412 CURVE SMOOTH",
"132 412 OFFCURVE",
"140 473 OFFCURVE",
"86 473 CURVE SMOOTH",
"-141 473 OFFCURVE",
"-318 0 OFFCURVE",
"-121 0 CURVE SMOOTH",
"134 0 OFFCURVE",
"496 1060 OFFCURVE",
"617 1060 CURVE SMOOTH",
"674 1060 OFFCURVE",
"424 745 OFFCURVE",
"263 745 CURVE SMOOTH",
"198 745 OFFCURVE",
"348 1089 OFFCURVE",
"247 1089 CURVE SMOOTH"
);
},
{
closed = 1;
nodes = (
"435 593 OFFCURVE",
"205 531 OFFCURVE",
"189 512 CURVE SMOOTH",
"185 507 OFFCURVE",
"184 499 OFFCURVE",
"193 499 CURVE",
"338 545 OFFCURVE",
"634 565 OFFCURVE",
"720 549 CURVE",
"727 558 OFFCURVE",
"738 593 OFFCURVE",
"655 593 CURVE SMOOTH"
);
},
{
closed = 1;
nodes = (
"758 1060 OFFCURVE",
"367 210 OFFCURVE",
"367 34 CURVE SMOOTH",
"367 10 OFFCURVE",
"372 0 OFFCURVE",
"386 9 CURVE",
"397 171 OFFCURVE",
"769 964 OFFCURVE",
"919 1038 CURVE",
"922 1038 OFFCURVE",
"917 1060 OFFCURVE",
"890 1060 CURVE SMOOTH"
);
}
);
width = 600;
}
);
unicode = 0048;
},
{
glyphname = I;
lastChange = "2016-09-20 00:57:32 +0200";
layers = (
{
layerId = "248CDC77-21EA-41B6-93B8-E98A9208AB16";
name = Regular;
paths = (
{
closed = 1;
nodes = (
"-109 0 OFFCURVE",
"68 473 OFFCURVE",
"295 473 CURVE SMOOTH",
"349 473 OFFCURVE",
"341 412 OFFCURVE",
"306 412 CURVE SMOOTH",
"290 412 OFFCURVE",
"274 426 OFFCURVE",
"287 459 CURVE",
"94 409 OFFCURVE",
"-65 12 OFFCURVE",
"89 12 CURVE SMOOTH",
"276 12 OFFCURVE",
"645 1070 OFFCURVE",
"828 1070 CURVE SMOOTH",
"909 1070 OFFCURVE",
"652 731 OFFCURVE",
"469 731 CURVE SMOOTH",
"345 731 OFFCURVE",
"509 1076 OFFCURVE",
"449 1076 CURVE SMOOTH",
"238 1076 OFFCURVE",
"-111 478 OFFCURVE",
"92 478 CURVE SMOOTH",
"195 478 OFFCURVE",
"335 680 OFFCURVE",
"326 747 CURVE",
"399 768 OFFCURVE",
"243 470 OFFCURVE",
"89 470 CURVE SMOOTH",
"-158 470 OFFCURVE",
"157 1089 OFFCURVE",
"456 1089 CURVE SMOOTH",
"557 1089 OFFCURVE",
"407 745 OFFCURVE",
"473 745 CURVE SMOOTH",
"633 745 OFFCURVE",
"883 1060 OFFCURVE",
"826 1060 CURVE SMOOTH",
"705 1060 OFFCURVE",
"343 0 OFFCURVE",
"88 0 CURVE SMOOTH"
);
}
);
width = 552.83;
}
);
unicode = 0049;
},
{
glyphname = J;
lastChange = "2016-09-20 01:07:57 +0200";
layers = (
{
layerId = "248CDC77-21EA-41B6-93B8-E98A9208AB16";
name = Regular;
paths = (
{
closed = 1;
nodes = (
"669 356 OFFCURVE",
"659 405 OFFCURVE",
"554 405 CURVE SMOOTH",
"115 405 OFFCURVE",
"-79 -228 OFFCURVE",
"74 -228 CURVE SMOOTH",
"279 -228 OFFCURVE",
"754 1066 OFFCURVE",
"932 1066 CURVE SMOOTH",
"1014 1066 OFFCURVE",
"756 726 OFFCURVE",
"574 726 CURVE SMOOTH",
"449 726 OFFCURVE",
"614 1071 OFFCURVE",
"554 1071 CURVE SMOOTH",
"342 1071 OFFCURVE",
"-7 473 OFFCURVE",
"197 473 CURVE SMOOTH",
"300 473 OFFCURVE",
"439 675 OFFCURVE",
"431 743 CURVE",
"504 764 OFFCURVE",
"347 465 OFFCURVE",
"194 465 CURVE SMOOTH",
"-54 465 OFFCURVE",
"261 1084 OFFCURVE",
"561 1084 CURVE SMOOTH",
"661 1084 OFFCURVE",
"512 740 OFFCURVE",
"577 740 CURVE SMOOTH",
"737 740 OFFCURVE",
"987 1055 OFFCURVE",
"931 1055 CURVE SMOOTH",
"803 1055 OFFCURVE",
"326 -240 OFFCURVE",
"77 -240 CURVE SMOOTH",
"-120 -240 OFFCURVE",
"70 417 OFFCURVE",
"550 417 CURVE SMOOTH",
"677 417 OFFCURVE",
"690 349 OFFCURVE",
"668 349 CURVE"
);
}
);
width = 637.892;
}
);
unicode = 004A;
},
{
glyphname = K;
lastChange = "2016-09-20 01:07:45 +0200";
layers = (
{
layerId = "248CDC77-21EA-41B6-93B8-E98A9208AB16";
name = Regular;
paths = (
{
closed = 1;
nodes = (
"766 1065 OFFCURVE",
"682 943 OFFCURVE",
"592 782 CURVE",
"550 757 OFFCURVE",
"509 740 OFFCURVE",
"473 740 CURVE SMOOTH",
"407 740 OFFCURVE",
"557 1084 OFFCURVE",
"457 1084 CURVE SMOOTH",
"157 1084 OFFCURVE",
"-158 465 OFFCURVE",
"89 465 CURVE SMOOTH",
"243 465 OFFCURVE",
"399 763 OFFCURVE",
"327 742 CURVE",
"335 675 OFFCURVE",
"195 473 OFFCURVE",
"92 473 CURVE SMOOTH",
"-111 473 OFFCURVE",
"238 1071 OFFCURVE",
"449 1071 CURVE SMOOTH",
"510 1071 OFFCURVE",
"345 726 OFFCURVE",
"469 726 CURVE SMOOTH",
"504 726 OFFCURVE",
"541 738 OFFCURVE",
"578 758 CURVE",
"405 446 OFFCURVE",
"210 7 OFFCURVE",
"89 7 CURVE SMOOTH",
"-65 7 OFFCURVE",
"94 404 OFFCURVE",
"287 454 CURVE",
"274 421 OFFCURVE",
"290 407 OFFCURVE",
"306 407 CURVE SMOOTH",
"341 407 OFFCURVE",
"350 468 OFFCURVE",
"296 468 CURVE SMOOTH",
"68 468 OFFCURVE",
"-109 -5 OFFCURVE",
"88 -5 CURVE SMOOTH",
"263 -5 OFFCURVE",
"488 492 OFFCURVE",
"651 806 CURVE",
"780 906 OFFCURVE",
"884 1065 OFFCURVE",
"828 1065 CURVE SMOOTH"
);
},
{
closed = 1;
nodes = (
"862 1055 OFFCURVE",
"776 930 OFFCURVE",
"668 838 CURVE",
"735 965 OFFCURVE",
"791 1055 OFFCURVE",
"826 1055 CURVE SMOOTH"
);
},
{
closed = 1;
nodes = (
"845 151 OFFCURVE",
"729 17 OFFCURVE",
"665 17 CURVE SMOOTH",
"619 17 OFFCURVE",
"625 245 OFFCURVE",
"600 363 CURVE",
"816 500 OFFCURVE",
"1047 973 OFFCURVE",
"1174 973 CURVE SMOOTH",
"1221 973 OFFCURVE",
"1232 936 OFFCURVE",
"1229 898 CURVE",
"1246 898 OFFCURVE",
"1256 995 OFFCURVE",
"1169 995 CURVE SMOOTH",
"999 995 OFFCURVE",
"786 533 OFFCURVE",
"595 383 CURVE",
"587 412 OFFCURVE",
"577 430 OFFCURVE",
"561 430 CURVE SMOOTH",
"463 430 OFFCURVE",
"425 325 OFFCURVE",
"492 325 CURVE SMOOTH",
"515 325 OFFCURVE",
"539 331 OFFCURVE",
"562 342 CURVE",
"582 229 OFFCURVE",
"579 0 OFFCURVE",
"667 0 CURVE SMOOTH",
"792 0 OFFCURVE",
"925 241 OFFCURVE",
"873 238 CURVE"
);
},
{
closed = 1;
nodes = (
"442 337 OFFCURVE",
"482 403 OFFCURVE",
"531 403 CURVE SMOOTH",
"544 403 OFFCURVE",
"553 386 OFFCURVE",
"559 358 CURVE",
"535 345 OFFCURVE",
"511 337 OFFCURVE",
"489 337 CURVE SMOOTH"
);
}
);
width = 909.898;
}
);
unicode = 004B;
},
{
glyphname = L;
lastChange = "2016-09-20 01:13:09 +0200";
layers = (
{
layerId = "248CDC77-21EA-41B6-93B8-E98A9208AB16";
name = Regular;
paths = (
{
closed = 1;
nodes = (
"657 999 OFFCURVE",
"440 17 OFFCURVE",
"113 17 CURVE SMOOTH",
"-39 17 OFFCURVE",
"-63 94 OFFCURVE",
"57 94 CURVE SMOOTH",
"201 94 OFFCURVE",
"361 0 OFFCURVE",
"583 0 CURVE SMOOTH",
"811 0 OFFCURVE",
"858 70 OFFCURVE",
"858 125 CURVE SMOOTH",
"858 230 OFFCURVE",
"620 227 OFFCURVE",
"620 148 CURVE",
"713 215 OFFCURVE",
"847 181 OFFCURVE",
"847 124 CURVE SMOOTH",
"847 80 OFFCURVE",
"762 33 OFFCURVE",
"587 33 CURVE SMOOTH",
"378 33 OFFCURVE",
"196 112 OFFCURVE",
"49 112 CURVE SMOOTH",
"-72 112 OFFCURVE",
"-73 -5 OFFCURVE",
"124 -5 CURVE SMOOTH",
"483 -5 OFFCURVE",
"719 982 OFFCURVE",
"974 982 CURVE SMOOTH",
"1160 982 OFFCURVE",
"881 353 OFFCURVE",
"472 353 CURVE SMOOTH",
"178 353 OFFCURVE",
"304 768 OFFCURVE",
"578 768 CURVE",
"580 785 OFFCURVE",
"551 790 OFFCURVE",
"529 790 CURVE SMOOTH",
"278 790 OFFCURVE",
"135 339 OFFCURVE",
"478 339 CURVE SMOOTH",
"903 339 OFFCURVE",
"1197 999 OFFCURVE",
"971 999 CURVE SMOOTH"
);
}
);
width = 906.675;
}
);
unicode = 004C;
},
{
glyphname = M;
lastChange = "2016-09-20 01:14:43 +0200";
layers = (
{
layerId = "248CDC77-21EA-41B6-93B8-E98A9208AB16";
name = Regular;
paths = (
{
closed = 1;
nodes = (
"229 1062 OFFCURVE",
"-79 481 OFFCURVE",
"136 481 CURVE SMOOTH",
"278 481 OFFCURVE",
"435 780 OFFCURVE",
"362 759 CURVE",
"370 692 OFFCURVE",
"220 490 OFFCURVE",
"140 490 CURVE SMOOTH",
"-47 490 OFFCURVE",
"318 1049 OFFCURVE",
"574 1049 CURVE SMOOTH",
"681 1049 OFFCURVE",
"337 555 OFFCURVE",
"140 44 CURVE",
"187 52 LINE",
"386 553 OFFCURVE",
"759 1062 OFFCURVE",
"581 1062 CURVE SMOOTH"
);
},
{
closed = 1;
nodes = (
"157 82 OFFCURVE",
"15 34 OFFCURVE",
"1 17 CURVE SMOOTH",
"-3 12 OFFCURVE",
"4 4 OFFCURVE",
"12 4 CURVE",
"142 53 OFFCURVE",
"315 50 OFFCURVE",
"333 42 CURVE",
"339 50 OFFCURVE",
"349 82 OFFCURVE",
"274 82 CURVE SMOOTH"
);
},
{
closed = 1;
nodes = (
"781 896 OFFCURVE",
"536 660 OFFCURVE",
"288 315 CURVE SMOOTH",
"235 246 OFFCURVE",
"186 153 OFFCURVE",
"234 204 CURVE",
"447 536 OFFCURVE",
"760 868 OFFCURVE",
"826 868 CURVE",
"788 778 OFFCURVE",
"482 244 OFFCURVE",
"424 44 CURVE",
"426 8 OFFCURVE",
"470 41 OFFCURVE",
"475 62 CURVE SMOOTH",
"505 186 OFFCURVE",
"764 649 OFFCURVE",
"863 840 CURVE SMOOTH",
"875 864 OFFCURVE",
"864 896 OFFCURVE",
"846 896 CURVE SMOOTH"
);
},
{
closed = 1;
nodes = (
"1002 805 OFFCURVE",
"697 528 OFFCURVE",
"532 263 CURVE",
"479 195 OFFCURVE",
"385 28 OFFCURVE",
"431 28 CURVE",
"554 370 OFFCURVE",
"935 737 OFFCURVE",
"1045 783 CURVE",
"1030 755 OFFCURVE",
"584 0 OFFCURVE",
"770 0 CURVE SMOOTH",
"902 0 OFFCURVE",
"1048 236 OFFCURVE",
"985 236 CURVE",
"934 105 OFFCURVE",
"812 12 OFFCURVE",
"770 12 CURVE SMOOTH",
"685 12 OFFCURVE",
"897 428 OFFCURVE",
"1022 651 CURVE SMOOTH",
"1068 732 OFFCURVE",
"1111 805 OFFCURVE",
"1066 805 CURVE SMOOTH"
);
}
);
width = 1035;
}
);
unicode = 004D;
},
{
glyphname = N;
lastChange = "2016-09-20 01:16:40 +0200";
layers = (
{
layerId = "248CDC77-21EA-41B6-93B8-E98A9208AB16";
name = Regular;
paths = (
{
closed = 1;
nodes = (
"821 892 OFFCURVE",
"493 623 OFFCURVE",
"328 358 CURVE",
"275 290 OFFCURVE",
"166 115 OFFCURVE",
"212 115 CURVE",
"354 458 OFFCURVE",
"754 823 OFFCURVE",
"864 870 CURVE",
"849 842 OFFCURVE",
"341 8 OFFCURVE",
"535 8 CURVE SMOOTH",
"666 8 OFFCURVE",
"813 244 OFFCURVE",
"749 244 CURVE",
"698 113 OFFCURVE",
"577 20 OFFCURVE",
"535 20 CURVE SMOOTH",
"450 20 OFFCURVE",
"716 515 OFFCURVE",
"841 738 CURVE SMOOTH",
"887 819 OFFCURVE",
"930 892 OFFCURVE",
"885 892 CURVE SMOOTH"
);
},
{
closed = 1;
nodes = (
"157 78 OFFCURVE",
"15 30 OFFCURVE",
"1 12 CURVE SMOOTH",
"-3 7 OFFCURVE",
"4 0 OFFCURVE",
"12 0 CURVE",
"142 49 OFFCURVE",
"315 46 OFFCURVE",
"333 38 CURVE",
"339 46 OFFCURVE",
"349 78 OFFCURVE",
"274 78 CURVE SMOOTH"
);
},
{
closed = 1;
nodes = (
"230 1057 OFFCURVE",
"-79 477 OFFCURVE",
"137 477 CURVE SMOOTH",
"278 477 OFFCURVE",
"435 776 OFFCURVE",
"362 755 CURVE",
"371 687 OFFCURVE",
"220 485 OFFCURVE",
"140 485 CURVE SMOOTH",
"-46 485 OFFCURVE",
"318 1044 OFFCURVE",
"574 1044 CURVE SMOOTH",
"682 1044 OFFCURVE",
"337 550 OFFCURVE",
"140 40 CURVE",
"187 48 LINE",
"386 549 OFFCURVE",
"759 1057 OFFCURVE",
"581 1057 CURVE SMOOTH"
);
}
);
width = 814;
}
);
unicode = 004E;
},
{
glyphname = O;
lastChange = "2016-09-20 01:17:20 +0200";
layers = (
{
layerId = "248CDC77-21EA-41B6-93B8-E98A9208AB16";
name = Regular;
paths = (
{
closed = 1;
nodes = (
"46 951 OFFCURVE",
"-173 0 OFFCURVE",
"226 0 CURVE SMOOTH",
"717 0 OFFCURVE",
"962 951 OFFCURVE",
"582 951 CURVE SMOOTH"
);
},
{
closed = 1;
nodes = (
"-122 13 OFFCURVE",
"133 938 OFFCURVE",
"575 938 CURVE SMOOTH",
"908 938 OFFCURVE",
"638 13 OFFCURVE",
"231 13 CURVE SMOOTH"
);
}
);
width = 718;
}
);
leftMetricsKey = o;
unicode = 004F;
},
{
glyphname = P;
lastChange = "2016-09-20 01:17:51 +0200";
layers = (
{
layerId = "248CDC77-21EA-41B6-93B8-E98A9208AB16";
name = Regular;
paths = (
{
closed = 1;
nodes = (
"893 1108 OFFCURVE",
"801 1049 OFFCURVE",
"729 972 CURVE",
"724 970 LINE",
"472 714 OFFCURVE",
"298 12 OFFCURVE",
"90 12 CURVE SMOOTH",
"-63 12 OFFCURVE",
"78 365 OFFCURVE",
"270 415 CURVE",
"257 382 OFFCURVE",
"274 368 OFFCURVE",
"289 368 CURVE SMOOTH",
"324 368 OFFCURVE",
"333 429 OFFCURVE",
"279 429 CURVE SMOOTH",
"51 429 OFFCURVE",
"-108 0 OFFCURVE",
"89 0 CURVE SMOOTH",
"348 0 OFFCURVE",
"575 821 OFFCURVE",
"739 963 CURVE",
"824 1059 OFFCURVE",
"961 1117 OFFCURVE",
"1029 1072 CURVE",
"1041 1072 OFFCURVE",
"1042 1108 OFFCURVE",
"996 1108 CURVE SMOOTH"
);
},
{
closed = 1;
nodes = (
"315 977 OFFCURVE",
"19 473 OFFCURVE",
"204 473 CURVE SMOOTH",
"358 473 OFFCURVE",
"520 685 OFFCURVE",
"467 685 CURVE",
"440 645 OFFCURVE",
"316 484 OFFCURVE",
"204 484 CURVE SMOOTH",
"76 484 OFFCURVE",
"354 964 OFFCURVE",
"760 964 CURVE SMOOTH",
"864 964 OFFCURVE",
"952 891 OFFCURVE",
"952 787 CURVE SMOOTH",
"952 436 OFFCURVE",
"483 227 OFFCURVE",
"483 357 CURVE SMOOTH",
"483 455 OFFCURVE",
"634 603 OFFCURVE",
"790 556 CURVE",
"802 565 OFFCURVE",
"787 578 OFFCURVE",
"739 578 CURVE SMOOTH",
"620 578 OFFCURVE",
"474 473 OFFCURVE",
"474 357 CURVE SMOOTH",
"474 205 OFFCURVE",
"1001 403 OFFCURVE",
"1001 787 CURVE SMOOTH",
"1001 900 OFFCURVE",
"900 977 OFFCURVE",
"765 977 CURVE SMOOTH"
);
}
);
width = 826;
}
);
unicode = 0050;
},
{
glyphname = Q;
lastChange = "2016-09-20 01:19:57 +0200";
layers = (
{
layerId = "248CDC77-21EA-41B6-93B8-E98A9208AB16";
name = Regular;
paths = (
{
closed = 1;
nodes = (
"25 960 OFFCURVE",
"-194 9 OFFCURVE",
"205 9 CURVE",
"695 9 OFFCURVE",
"941 960 OFFCURVE",
"561 960 CURVE"
);
},
{
closed = 1;
nodes = (
"288 114 OFFCURVE",
"476 -77 OFFCURVE",
"512 -112 CURVE",
"536 -134 OFFCURVE",
"552 -124 OFFCURVE",
"549 -121 CURVE SMOOTH",
"524 -98 OFFCURVE",
"372 77 OFFCURVE",
"303 137 CURVE",
"275 163 OFFCURVE",
"233 161 OFFCURVE",
"241 147 CURVE SMOOTH"
);
},
{
closed = 1;
nodes = (
"887 947 OFFCURVE",
"617 22 OFFCURVE",
"210 22 CURVE",
"-143 22 OFFCURVE",
"112 947 OFFCURVE",
"554 947 CURVE"
);
}
);
width = 689.756;
}
);
unicode = 0051;
},
{
glyphname = R;
lastChange = "2016-09-20 01:20:41 +0200";
layers = (
{
layerId = "248CDC77-21EA-41B6-93B8-E98A9208AB16";
name = Regular;
paths = (
{
closed = 1;
nodes = (
"263 393 OFFCURVE",
"220 4 OFFCURVE",
"336 4 CURVE SMOOTH",
"461 4 OFFCURVE",
"595 245 OFFCURVE",
"542 242 CURVE",
"515 155 OFFCURVE",
"399 21 OFFCURVE",
"334 21 CURVE SMOOTH",
"273 21 OFFCURVE",
"304 420 OFFCURVE",
"231 420 CURVE SMOOTH",
"132 420 OFFCURVE",
"94 316 OFFCURVE",
"161 316 CURVE SMOOTH",
"404 316 OFFCURVE",
"622 510 OFFCURVE",
"653 679 CURVE SMOOTH",
"673 792 OFFCURVE",
"628 932 OFFCURVE",
"441 932 CURVE SMOOTH",
"4 932 OFFCURVE",
"-258 516 OFFCURVE",
"-290 246 CURVE SMOOTH",
"-307 106 OFFCURVE",
"-265 -11 OFFCURVE",
"-178 -11 CURVE SMOOTH",
"76 -11 OFFCURVE",
"145 742 OFFCURVE",
"440 999 CURVE SMOOTH",
"504 1055 OFFCURVE",
"643 1096 OFFCURVE",
"677 1056 CURVE",
"689 1056 OFFCURVE",
"690 1092 OFFCURVE",
"644 1092 CURVE SMOOTH",
"177 1092 OFFCURVE",
"51 5 OFFCURVE",
"-177 5 CURVE SMOOTH",
"-257 5 OFFCURVE",
"-298 115 OFFCURVE",
"-279 248 CURVE SMOOTH",
"-241 509 OFFCURVE",
"26 919 OFFCURVE",
"436 919 CURVE SMOOTH",
"589 919 OFFCURVE",
"626 786 OFFCURVE",
"606 682 CURVE SMOOTH",
"576 519 OFFCURVE",
"356 328 OFFCURVE",
"158 328 CURVE SMOOTH",
"111 328 OFFCURVE",
"152 393 OFFCURVE",
"201 393 CURVE SMOOTH"
);
}
);
width = 600;
}
);
unicode = 0052;
},
{
glyphname = S;
lastChange = "2016-09-20 01:21:02 +0200";
layers = (
{
layerId = "248CDC77-21EA-41B6-93B8-E98A9208AB16";
name = Regular;
paths = (
{
closed = 1;
nodes = (
"979 1100 OFFCURVE",
"868 716 OFFCURVE",
"675 716 CURVE SMOOTH",
"640 716 OFFCURVE",
"627 733 OFFCURVE",
"627 742 CURVE",
"817 740 OFFCURVE",
"935 1086 OFFCURVE",
"745 1086 CURVE SMOOTH",
"451 1086 OFFCURVE",
"556 579 OFFCURVE",
"455 262 CURVE SMOOTH",
"412 129 OFFCURVE",
"328 0 OFFCURVE",
"183 0 CURVE SMOOTH",
"-107 0 OFFCURVE",
"57 546 OFFCURVE",
"345 546 CURVE SMOOTH",
"418 546 OFFCURVE",
"389 464 OFFCURVE",
"353 464 CURVE SMOOTH",
"322 464 OFFCURVE",
"315 502 OFFCURVE",
"339 524 CURVE",
"104 500 OFFCURVE",
"-53 16 OFFCURVE",
"187 16 CURVE SMOOTH",
"310 16 OFFCURVE",
"388 138 OFFCURVE",
"420 282 CURVE SMOOTH",
"491 599 OFFCURVE",
"407 1100 OFFCURVE",
"743 1100 CURVE SMOOTH"
);
}
);
width = 600;
}
);
unicode = 0053;
},
{
glyphname = T;
lastChange = "2016-09-20 01:22:22 +0200";
layers = (
{
layerId = "248CDC77-21EA-41B6-93B8-E98A9208AB16";
name = Regular;
paths = (
{
closed = 1;
nodes = (
"105 409 OFFCURVE",
"-55 12 OFFCURVE",
"99 12 CURVE SMOOTH",
"244 12 OFFCURVE",
"545 626 OFFCURVE",
"645 881 CURVE",
"666 898 OFFCURVE",
"706 901 OFFCURVE",
"696 881 CURVE",
"583 626 OFFCURVE",
"298 0 OFFCURVE",
"98 0 CURVE SMOOTH",
"-99 0 OFFCURVE",
"78 473 OFFCURVE",
"306 473 CURVE SMOOTH",
"360 473 OFFCURVE",
"351 412 OFFCURVE",
"316 412 CURVE SMOOTH",
"301 412 OFFCURVE",
"284 426 OFFCURVE",
"297 459 CURVE"
);
},
{
closed = 1;
nodes = (
"71 969 OFFCURVE",
"0 885 OFFCURVE",
"0 833 CURVE SMOOTH",
"0 764 OFFCURVE",
"96 713 OFFCURVE",
"225 713 CURVE SMOOTH",
"358 713 OFFCURVE",
"452 755 OFFCURVE",
"475 810 CURVE",
"499 810 OFFCURVE",
"455 678 OFFCURVE",
"217 678 CURVE SMOOTH",
"95 678 OFFCURVE",
"-10 740 OFFCURVE",
"-10 833 CURVE SMOOTH",
"-10 956 OFFCURVE",
"145 1009 OFFCURVE",
"325 1009 CURVE SMOOTH",
"500 1009 OFFCURVE",
"951 928 OFFCURVE",
"1022 983 CURVE",
"1039 961 OFFCURVE",
"958 942 OFFCURVE",
"841 942 CURVE SMOOTH",
"668 942 OFFCURVE",
"420 969 OFFCURVE",
"314 969 CURVE SMOOTH"
);
}
);
width = 600;
}
);
unicode = 0054;
},
{
glyphname = U;
lastChange = "2016-09-20 01:23:20 +0200";
layers = (
{
layerId = "248CDC77-21EA-41B6-93B8-E98A9208AB16";
name = Regular;
paths = (
{
closed = 1;
nodes = (
"928 963 OFFCURVE",
"768 690 OFFCURVE",
"580 436 CURVE SMOOTH",
"421 222 OFFCURVE",
"220 22 OFFCURVE",
"139 22 CURVE SMOOTH",
"9 22 OFFCURVE",
"717 1092 OFFCURVE",
"499 1092 CURVE SMOOTH",
"147 1092 OFFCURVE",
"-142 512 OFFCURVE",
"74 512 CURVE SMOOTH",
"215 512 OFFCURVE",
"349 811 OFFCURVE",
"276 790 CURVE",
"285 722 OFFCURVE",
"157 520 OFFCURVE",
"77 520 CURVE SMOOTH",
"-109 520 OFFCURVE",
"236 1079 OFFCURVE",
"492 1079 CURVE SMOOTH",
"637 1079 OFFCURVE",
"-82 3 OFFCURVE",
"132 3 CURVE SMOOTH",
"368 3 OFFCURVE",
"1020 985 OFFCURVE",
"893 985 CURVE SMOOTH",
"763 985 OFFCURVE",
"304 -5 OFFCURVE",
"491 -5 CURVE SMOOTH",
"622 -5 OFFCURVE",
"768 231 OFFCURVE",
"705 231 CURVE",
"654 100 OFFCURVE",
"533 7 OFFCURVE",
"490 7 CURVE SMOOTH",
"383 7 OFFCURVE",
"817 963 OFFCURVE",
"892 963 CURVE SMOOTH"
);
}
);
width = 789;
}
);
unicode = 0055;
},
{
glyphname = V;
lastChange = "2016-09-20 01:25:02 +0200";
layers = (
{
layerId = "248CDC77-21EA-41B6-93B8-E98A9208AB16";
name = Regular;
paths = (
{
closed = 1;
nodes = (
"606 1027 OFFCURVE",
"144 8 OFFCURVE",
"221 8 CURVE",
"291 273 OFFCURVE",
"487 626 OFFCURVE",
"744 876 CURVE SMOOTH",
"860 988 OFFCURVE",
"988 1034 OFFCURVE",
"1035 991 CURVE",
"1048 991 OFFCURVE",
"1048 1027 OFFCURVE",
"1003 1027 CURVE SMOOTH"
);
},
{
closed = 1;
nodes = (
"23 1000 OFFCURVE",
"-207 380 OFFCURVE",
"18 380 CURVE SMOOTH",
"172 380 OFFCURVE",
"328 714 OFFCURVE",
"256 693 CURVE",
"264 626 OFFCURVE",
"124 389 OFFCURVE",
"21 389 CURVE SMOOTH",
"-182 389 OFFCURVE",
"115 986 OFFCURVE",
"413 986 CURVE SMOOTH",
"578 986 OFFCURVE",
"142 325 OFFCURVE",
"190 32 CURVE SMOOTH",
"192 19 OFFCURVE",
"204 -12 OFFCURVE",
"222 5 CURVE",
"216 44 LINE",
"221 371 OFFCURVE",
"634 1000 OFFCURVE",
"420 1000 CURVE SMOOTH"
);
}
);
width = 600;
}
);
unicode = 0056;
},
{
glyphname = W;
lastChange = "2016-09-20 01:25:27 +0200";
layers = (
{
layerId = "248CDC77-21EA-41B6-93B8-E98A9208AB16";
name = Regular;
paths = (
{
closed = 1;
nodes = (
"1355 981 OFFCURVE",
"1367 1001 OFFCURVE",
"1323 1001 CURVE SMOOTH",
"1189 1001 OFFCURVE",
"868 598 OFFCURVE",
"638 47 CURVE",
"654 419 OFFCURVE",
"721 669 OFFCURVE",
"771 777 CURVE",
"765 789 OFFCURVE",
"737 783 OFFCURVE",
"727 754 CURVE",
"603 612 OFFCURVE",
"440 381 OFFCURVE",
"240 46 CURVE",
"264 167 OFFCURVE",
"331 454 OFFCURVE",
"422 672 CURVE",
"577 802 OFFCURVE",
"720 1071 OFFCURVE",
"655 1071 CURVE SMOOTH",
"571 1071 OFFCURVE",
"476 907 OFFCURVE",
"389 684 CURVE",
"355 661 OFFCURVE",
"323 646 OFFCURVE",
"294 646 CURVE SMOOTH",
"215 646 OFFCURVE",
"474 1090 OFFCURVE",
"357 1090 CURVE SMOOTH",
"161 1090 OFFCURVE",
"0 794 OFFCURVE",
"0 613 CURVE SMOOTH",
"0 475 OFFCURVE",
"95 476 OFFCURVE",
"95 498 CURVE",
"62 513 OFFCURVE",
"46 554 OFFCURVE",
"46 608 CURVE SMOOTH",
"46 819 OFFCURVE",
"221 1077 OFFCURVE",
"350 1077 CURVE SMOOTH",
"428 1077 OFFCURVE",
"151 632 OFFCURVE",
"290 632 CURVE SMOOTH",
"319 632 OFFCURVE",
"349 643 OFFCURVE",
"379 661 CURVE",
"268 396 OFFCURVE",
"202 59 OFFCURVE",
"203 31 CURVE",
"205 9 OFFCURVE",
"228 -7 OFFCURVE",
"238 3 CURVE",
"378 253 OFFCURVE",
"570 532 OFFCURVE",
"709 706 CURVE",
"643 526 OFFCURVE",
"602 239 OFFCURVE",
"603 30 CURVE SMOOTH",
"603 17 OFFCURVE",
"626 -5 OFFCURVE",
"639 9 CURVE",
"1029 880 OFFCURVE",
"1292 1012 OFFCURVE",
"1355 981 CURVE"
);
},
{
closed = 1;
nodes = (
"694 1061 OFFCURVE",
"561 829 OFFCURVE",
"427 700 CURVE",
"505 897 OFFCURVE",
"597 1061 OFFCURVE",
"654 1061 CURVE SMOOTH"
);
}
);
width = 996;
}
);
unicode = 0057;
},
{
glyphname = X;
lastChange = "2016-09-20 01:29:18 +0200";
layers = (
{
layerId = "248CDC77-21EA-41B6-93B8-E98A9208AB16";
name = Regular;
paths = (
{
closed = 1;
nodes = (
"70 1112 OFFCURVE",
"-170 453 OFFCURVE",
"141 453 CURVE SMOOTH",
"506 453 OFFCURVE",
"687 932 OFFCURVE",
"569 921 CURVE",
"627 872 OFFCURVE",
"414 469 OFFCURVE",
"142 469 CURVE SMOOTH",
"-145 469 OFFCURVE",
"183 1101 OFFCURVE",
"669 1101 CURVE SMOOTH",
"980 1101 OFFCURVE",
"733 572 OFFCURVE",
"580 384 CURVE SMOOTH",
"386 145 OFFCURVE",
"225 12 OFFCURVE",
"135 12 CURVE SMOOTH",
"-18 12 OFFCURVE",
"141 358 OFFCURVE",
"333 408 CURVE",
"320 375 OFFCURVE",
"337 361 OFFCURVE",
"352 361 CURVE SMOOTH",
"387 361 OFFCURVE",
"396 422 OFFCURVE",
"342 422 CURVE SMOOTH",
"114 422 OFFCURVE",
"-63 0 OFFCURVE",
"135 0 CURVE SMOOTH",
"258 0 OFFCURVE",
"398 125 OFFCURVE",
"565 310 CURVE SMOOTH",
"590 337 OFFCURVE",
"716 519 OFFCURVE",
"758 601 CURVE SMOOTH",
"873 825 OFFCURVE",
"937 1112 OFFCURVE",
"658 1112 CURVE SMOOTH"
);
},
{
closed = 1;
nodes = (
"951 882 OFFCURVE",
"715 624 OFFCURVE",
"557 324 CURVE SMOOTH",
"475 168 OFFCURVE",
"443 0 OFFCURVE",
"532 0 CURVE SMOOTH",
"714 0 OFFCURVE",
"1021 414 OFFCURVE",
"961 414 CURVE",
"921 304 OFFCURVE",
"628 12 OFFCURVE",
"538 12 CURVE SMOOTH",
"466 12 OFFCURVE",
"519 185 OFFCURVE",
"595 323 CURVE SMOOTH",
"754 608 OFFCURVE",
"1006 869 OFFCURVE",
"1148 869 CURVE SMOOTH",
"1212 869 OFFCURVE",
"1180 695 OFFCURVE",
"1009 606 CURVE",
"1038 593 OFFCURVE",
"1106 644 OFFCURVE",
"1146 700 CURVE SMOOTH",
"1201 778 OFFCURVE",
"1225 882 OFFCURVE",
"1137 882 CURVE SMOOTH"
);
}
);
width = 964.77;
}
);
unicode = 0058;
},
{
glyphname = Y;
lastChange = "2016-09-20 01:30:44 +0200";
layers = (
{
layerId = "248CDC77-21EA-41B6-93B8-E98A9208AB16";
name = Regular;
paths = (
{
closed = 1;
nodes = (
"13 0 OFFCURVE",
"118 341 OFFCURVE",
"325 341 CURVE SMOOTH",
"373 341 OFFCURVE",
"367 284 OFFCURVE",
"332 284 CURVE SMOOTH",
"316 284 OFFCURVE",
"304 306 OFFCURVE",
"320 331 CURVE",
"148 297 OFFCURVE",
"60 9 OFFCURVE",
"185 9 CURVE SMOOTH",
"416 9 OFFCURVE",
"684 1081 OFFCURVE",
"888 1081 CURVE SMOOTH",
"970 1081 OFFCURVE",
"475 435 OFFCURVE",
"292 435 CURVE SMOOTH",
"145 435 OFFCURVE",
"590 1086 OFFCURVE",
"505 1086 CURVE SMOOTH",
"250 1086 OFFCURVE",
"-111 527 OFFCURVE",
"75 527 CURVE SMOOTH",
"155 527 OFFCURVE",
"283 730 OFFCURVE",
"275 797 CURVE",
"347 818 OFFCURVE",
"213 519 OFFCURVE",
"72 519 CURVE SMOOTH",
"-144 519 OFFCURVE",
"161 1099 OFFCURVE",
"513 1099 CURVE SMOOTH",
"660 1099 OFFCURVE",
"218 450 OFFCURVE",
"296 450 CURVE SMOOTH",
"456 450 OFFCURVE",
"943 1070 OFFCURVE",
"886 1070 CURVE SMOOTH",
"746 1070 OFFCURVE",
"460 0 OFFCURVE",
"188 0 CURVE SMOOTH"
);
}
);
width = 557;
}
);
unicode = 0059;
},
{
glyphname = Z;
lastChange = "2016-09-20 01:31:19 +0200";
layers = (
{
layerId = "248CDC77-21EA-41B6-93B8-E98A9208AB16";
name = Regular;
paths = (
{
closed = 1;
nodes = (
"-22 727 OFFCURVE",
"29 786 OFFCURVE",
"138 786 CURVE SMOOTH",
"425 786 OFFCURVE",
"317 362 OFFCURVE",
"133 362 CURVE SMOOTH",
"-76 362 OFFCURVE",
"235 1055 OFFCURVE",
"527 1055 CURVE SMOOTH",
"612 1055 OFFCURVE",
"477 672 OFFCURVE",
"543 672 CURVE SMOOTH",
"699 672 OFFCURVE",
"856 862 OFFCURVE",
"803 862 CURVE SMOOTH",
"693 862 OFFCURVE",
"263 5 OFFCURVE",
"115 5 CURVE SMOOTH",
"-12 5 OFFCURVE",
"275 406 OFFCURVE",
"502 406 CURVE SMOOTH",
"631 406 OFFCURVE",
"380 14 OFFCURVE",
"431 14 CURVE SMOOTH",
"482 14 OFFCURVE",
"573 119 OFFCURVE",
"587 158 CURVE",
"635 158 OFFCURVE",
"508 0 OFFCURVE",
"420 0 CURVE SMOOTH",
"312 0 OFFCURVE",
"566 390 OFFCURVE",
"491 390 CURVE SMOOTH",
"280 390 OFFCURVE",
"29 20 OFFCURVE",
"110 20 CURVE SMOOTH",
"206 20 OFFCURVE",
"665 872 OFFCURVE",
"805 872 CURVE SMOOTH",
"880 872 OFFCURVE",
"722 658 OFFCURVE",
"539 658 CURVE SMOOTH",
"415 658 OFFCURVE",
"583 1038 OFFCURVE",
"523 1038 CURVE SMOOTH",
"305 1038 OFFCURVE",
"-31 374 OFFCURVE",
"140 374 CURVE SMOOTH",
"300 374 OFFCURVE",
"404 775 OFFCURVE",
"133 775 CURVE SMOOTH",
"80 775 OFFCURVE",
"26 751 OFFCURVE",
"9 727 CURVE"
);
}
);
width = 664;
}
);
unicode = 005A;
},
{
glyphname = a;
lastChange = "2016-09-20 01:16:11 +0200";
layers = (
{
layerId = "248CDC77-21EA-41B6-93B8-E98A9208AB16";
name = Regular;
paths = (
{
closed = 1;
nodes = (
"498 179 OFFCURVE",
"345 24 OFFCURVE",
"293 16 CURVE SMOOTH",
"269 12 OFFCURVE",
"316 135 OFFCURVE",
"383 275 CURVE",
"549 453 OFFCURVE",
"706 664 OFFCURVE",
"625 664 CURVE SMOOTH",
"584 664 OFFCURVE",
"508 568 OFFCURVE",
"435 448 CURVE",
"470 542 OFFCURVE",
"495 664 OFFCURVE",
"431 664 CURVE SMOOTH",
"351 664 OFFCURVE",
"215 532 OFFCURVE",
"117 360 CURVE SMOOTH",
"30 207 OFFCURVE",
"-13 11 OFFCURVE",
"50 11 CURVE SMOOTH",
"96 11 OFFCURVE",
"199 75 OFFCURVE",
"305 196 CURVE",
"259 86 OFFCURVE",
"240 0 OFFCURVE",
"281 0 CURVE SMOOTH",
"390 0 OFFCURVE",
"605 263 OFFCURVE",
"566 263 CURVE"
);
},
{
closed = 1;
nodes = (
"670 653 OFFCURVE",
"546 474 OFFCURVE",
"407 323 CURVE",
"487 484 OFFCURVE",
"585 648 OFFCURVE",
"624 651 CURVE SMOOTH"
);
},
{
closed = 1;
nodes = (
"26 28 OFFCURVE",
"79 204 OFFCURVE",
"156 338 CURVE SMOOTH",
"251 505 OFFCURVE",
"374 646 OFFCURVE",
"430 646 CURVE SMOOTH",
"479 646 OFFCURVE",
"438 481 OFFCURVE",
"402 391 CURVE",
"373 340 OFFCURVE",
"346 287 OFFCURVE",
"323 238 CURVE",
"195 102 OFFCURVE",
"93 28 OFFCURVE",
"61 28 CURVE SMOOTH"
);
}
);
width = 625;
}
);
unicode = 0061;
},
{
glyphname = aogonek;
lastChange = "2016-09-16 01:54:45 +0200";
layers = (
{
layerId = "248CDC77-21EA-41B6-93B8-E98A9208AB16";
name = Regular;
paths = (
{
closed = 1;
nodes = (
"403 -11 OFFCURVE",
"381 -15 OFFCURVE",
"366 -23 CURVE SMOOTH",
"255 -86 OFFCURVE",
"164 -254 OFFCURVE",
"256 -254 CURVE SMOOTH",
"323 -254 OFFCURVE",
"382 -146 OFFCURVE",
"356 -146 CURVE",
"339 -178 OFFCURVE",
"288 -243 OFFCURVE",
"255 -243 CURVE SMOOTH",
"203 -243 OFFCURVE",
"291 -97 OFFCURVE",
"405 -18 CURVE"
);
},
{
closed = 1;
nodes = (
"498 167 OFFCURVE",
"345 13 OFFCURVE",
"293 4 CURVE SMOOTH",
"269 0 OFFCURVE",
"316 124 OFFCURVE",
"383 263 CURVE",
"549 442 OFFCURVE",
"706 653 OFFCURVE",
"625 653 CURVE SMOOTH",
"584 653 OFFCURVE",
"508 556 OFFCURVE",
"435 437 CURVE",
"470 531 OFFCURVE",
"495 653 OFFCURVE",
"431 653 CURVE SMOOTH",
"351 653 OFFCURVE",
"215 520 OFFCURVE",
"117 348 CURVE SMOOTH",
"29 195 OFFCURVE",
"-13 0 OFFCURVE",
"49 0 CURVE SMOOTH",
"96 0 OFFCURVE",
"199 63 OFFCURVE",
"305 185 CURVE",
"259 75 OFFCURVE",
"239 -12 OFFCURVE",
"281 -12 CURVE SMOOTH",
"390 -12 OFFCURVE",
"604 251 OFFCURVE",
"566 251 CURVE"
);
},
{
closed = 1;
nodes = (
"670 642 OFFCURVE",
"546 462 OFFCURVE",
"407 312 CURVE",
"487 473 OFFCURVE",
"584 637 OFFCURVE",
"623 639 CURVE SMOOTH"
);
},
{
closed = 1;
nodes = (
"26 16 OFFCURVE",
"79 193 OFFCURVE",
"155 326 CURVE SMOOTH",
"251 493 OFFCURVE",
"374 635 OFFCURVE",
"430 635 CURVE SMOOTH",
"479 635 OFFCURVE",
"438 469 OFFCURVE",
"401 379 CURVE",
"373 328 OFFCURVE",
"346 276 OFFCURVE",
"323 226 CURVE",
"195 91 OFFCURVE",
"92 16 OFFCURVE",
"61 16 CURVE SMOOTH"
);
}
);
width = 625;
}
);
unicode = 0105;
},
{
glyphname = b;
lastChange = "2016-09-16 02:20:49 +0200";
layers = (
{
layerId = "248CDC77-21EA-41B6-93B8-E98A9208AB16";
name = Regular;
paths = (
{
closed = 1;
nodes = (
"21 205 OFFCURVE",
"-45 0 OFFCURVE",
"47 0 CURVE SMOOTH",
"227 0 OFFCURVE",
"430 323 OFFCURVE",
"467 428 CURVE",
"574 419 OFFCURVE",
"646 471 OFFCURVE",
"635 486 CURVE",
"598 456 OFFCURVE",
"519 440 OFFCURVE",
"476 447 CURVE",
"516 553 OFFCURVE",
"526 676 OFFCURVE",
"487 676 CURVE SMOOTH",
"434 676 OFFCURVE",
"364 568 OFFCURVE",
"364 514 CURVE SMOOTH",
"364 479 OFFCURVE",
"390 450 OFFCURVE",
"430 433 CURVE",
"376 289 OFFCURVE",
"155 17 OFFCURVE",
"49 17 CURVE SMOOTH",
"-4 17 OFFCURVE",
"54 180 OFFCURVE",
"137 329 CURVE SMOOTH",
"178 402 OFFCURVE",
"221 477 OFFCURVE",
"263 550 CURVE",
"513 796 OFFCURVE",
"617 1000 OFFCURVE",
"549 1000 CURVE SMOOTH",
"492 1000 OFFCURVE",
"311 740 OFFCURVE",
"126 399 CURVE SMOOTH"
);
},
{
closed = 1;
nodes = (
"575 974 OFFCURVE",
"482 807 OFFCURVE",
"299 612 CURVE",
"424 826 OFFCURVE",
"522 974 OFFCURVE",
"548 974 CURVE SMOOTH"
);
},
{
closed = 1;
nodes = (
"378 569 OFFCURVE",
"455 661 OFFCURVE",
"480 661 CURVE SMOOTH",
"499 661 OFFCURVE",
"474 528 OFFCURVE",
"440 456 CURVE",
"415 461 OFFCURVE",
"388 485 OFFCURVE",
"386 506 CURVE SMOOTH"
);
}
);
width = 541;
}
);
unicode = 0062;
},
{
glyphname = c;
lastChange = "2016-09-16 02:16:48 +0200";
layers = (
{
layerId = "248CDC77-21EA-41B6-93B8-E98A9208AB16";
name = Regular;
paths = (
{
closed = 1;
nodes = (
"262 428 OFFCURVE",
"275 394 OFFCURVE",
"304 394 CURVE SMOOTH",
"410 394 OFFCURVE",
"546 660 OFFCURVE",
"417 660 CURVE SMOOTH",
"195 660 OFFCURVE",
"-109 0 OFFCURVE",
"78 0 CURVE SMOOTH",
"256 0 OFFCURVE",
"473 343 OFFCURVE",
"423 343 CURVE",
"383 267 OFFCURVE",
"204 17 OFFCURVE",
"79 17 CURVE SMOOTH",
"-56 17 OFFCURVE",
"265 643 OFFCURVE",
"417 643 CURVE SMOOTH",
"477 643 OFFCURVE",
"403 443 OFFCURVE",
"309 410 CURVE",
"333 431 OFFCURVE",
"305 463 OFFCURVE",
"283 445 CURVE SMOOTH"
);
}
);
width = 460;
}
);
unicode = 0063;
},
{
glyphname = cacute;
lastChange = "2016-09-16 03:23:02 +0200";
layers = (
{
layerId = "248CDC77-21EA-41B6-93B8-E98A9208AB16";
name = Regular;
paths = (
{
closed = 1;
nodes = (
"271 423 OFFCURVE",
"279 394 OFFCURVE",
"308 394 CURVE SMOOTH",
"411 394 OFFCURVE",
"550 660 OFFCURVE",
"421 660 CURVE SMOOTH",
"199 660 OFFCURVE",
"-104 0 OFFCURVE",
"74 0 CURVE SMOOTH",
"252 0 OFFCURVE",
"483 343 OFFCURVE",
"433 343 CURVE",
"402 285 OFFCURVE",
"200 17 OFFCURVE",
"75 17 CURVE SMOOTH",
"-55 17 OFFCURVE",
"273 643 OFFCURVE",
"421 643 CURVE SMOOTH",
"481 643 OFFCURVE",
"400 447 OFFCURVE",
"316 414 CURVE",
"347 441 OFFCURVE",
"316 485 OFFCURVE",
"287 445 CURVE SMOOTH"
);
},
{
closed = 1;
nodes = (
"518 791 OFFCURVE",
"463 730 OFFCURVE",
"446 712 CURVE",
"468 694 OFFCURVE",
"551 788 OFFCURVE",
"562 836 CURVE SMOOTH",
"567 856 OFFCURVE",
"553 861 OFFCURVE",
"545 861 CURVE"
);
}
);
width = 493;
}
);
unicode = 0107;
},
{
glyphname = d;
lastChange = "2016-09-16 01:54:11 +0200";
layers = (
{
layerId = "248CDC77-21EA-41B6-93B8-E98A9208AB16";
name = Regular;
paths = (
{
closed = 1;
nodes = (
"654 319 OFFCURVE",
"347 18 OFFCURVE",
"282 18 CURVE SMOOTH",
"252 18 OFFCURVE",
"318 173 OFFCURVE",
"404 328 CURVE SMOOTH",
"435 384 OFFCURVE",
"468 441 OFFCURVE",
"500 496 CURVE",
"728 716 OFFCURVE",
"917 1001 OFFCURVE",
"832 1001 CURVE SMOOTH",
"776 1001 OFFCURVE",
"597 754 OFFCURVE",
"435 470 CURVE",
"469 563 OFFCURVE",
"493 679 OFFCURVE",
"432 679 CURVE SMOOTH",
"351 679 OFFCURVE",
"215 547 OFFCURVE",
"117 375 CURVE SMOOTH",
"30 222 OFFCURVE",
"-13 26 OFFCURVE",
"50 26 CURVE SMOOTH",
"97 26 OFFCURVE",
"194 90 OFFCURVE",
"300 211 CURVE",
"246 90 OFFCURVE",
"224 0 OFFCURVE",
"270 0 CURVE SMOOTH",
"430 0 OFFCURVE",
"769 443 OFFCURVE",
"722 443 CURVE"
);
},
{
closed = 1;
nodes = (
"860 970 OFFCURVE",
"726 745 OFFCURVE",
"525 538 CURVE",
"666 775 OFFCURVE",
"797 970 OFFCURVE",
"827 970 CURVE SMOOTH"
);
},
{
closed = 1;
nodes = (
"27 43 OFFCURVE",
"80 219 OFFCURVE",
"156 353 CURVE SMOOTH",
"251 520 OFFCURVE",
"374 661 OFFCURVE",
"430 661 CURVE SMOOTH",
"482 661 OFFCURVE",
"430 478 OFFCURVE",
"391 392 CURVE",
"385 381 OFFCURVE",
"379 369 OFFCURVE",
"372 358 CURVE",
"372 357 OFFCURVE",
"372 357 OFFCURVE",
"372 357 CURVE",
"372 357 OFFCURVE",
"372 357 OFFCURVE",
"372 357 CURVE",
"368 349 OFFCURVE",
"364 341 OFFCURVE",
"360 334 CURVE SMOOTH",
"346 307 OFFCURVE",
"332 280 OFFCURVE",
"320 254 CURVE",
"191 118 OFFCURVE",
"93 43 OFFCURVE",
"61 43 CURVE SMOOTH"
);
}
);
width = 693;
}
);
unicode = 0064;
},
{
glyphname = e;
lastChange = "2016-09-16 04:04:25 +0200";
layers = (
{
layerId = "248CDC77-21EA-41B6-93B8-E98A9208AB16";
name = Regular;
paths = (
{
closed = 1;
nodes = (
"166 312 OFFCURVE",
"166 264 OFFCURVE",
"207 264 CURVE SMOOTH",
"372 264 OFFCURVE",
"603 657 OFFCURVE",
"449 657 CURVE SMOOTH",
"215 657 OFFCURVE",
"-97 -2 OFFCURVE",
"104 -2 CURVE SMOOTH",
"282 -2 OFFCURVE",
"513 341 OFFCURVE",
"464 341 CURVE",
"433 283 OFFCURVE",
"230 15 OFFCURVE",
"105 15 CURVE SMOOTH",
"-46 15 OFFCURVE",
"279 640 OFFCURVE",
"449 640 CURVE SMOOTH",
"542 640 OFFCURVE",
"326 284 OFFCURVE",
"208 284 CURVE SMOOTH",
"197 284 OFFCURVE",
"182 295 OFFCURVE",
"180 318 CURVE"
);
}
);
width = 492;
}
);
unicode = 0065;
},
{
glyphname = eogonek;
lastChange = "2016-09-16 03:23:31 +0200";
layers = (
{
layerId = "248CDC77-21EA-41B6-93B8-E98A9208AB16";
name = Regular;
paths = (
{
closed = 1;
nodes = (
);
},
{
closed = 1;
nodes = (
"205 2 OFFCURVE",
"182 -3 OFFCURVE",
"168 -11 CURVE SMOOTH",
"57 -73 OFFCURVE",
"-35 -241 OFFCURVE",
"58 -241 CURVE SMOOTH",
"125 -241 OFFCURVE",
"184 -133 OFFCURVE",
"158 -133 CURVE",
"141 -166 OFFCURVE",
"89 -230 OFFCURVE",
"57 -230 CURVE SMOOTH",
"5 -230 OFFCURVE",
"93 -85 OFFCURVE",
"207 -6 CURVE"
);
},
{
closed = 1;
nodes = (
"146 312 OFFCURVE",
"146 264 OFFCURVE",
"187 264 CURVE SMOOTH",
"352 264 OFFCURVE",
"583 657 OFFCURVE",
"429 657 CURVE SMOOTH",
"195 657 OFFCURVE",
"-117 -2 OFFCURVE",
"84 -2 CURVE SMOOTH",
"262 -2 OFFCURVE",
"493 341 OFFCURVE",
"444 341 CURVE",
"413 283 OFFCURVE",
"210 15 OFFCURVE",
"85 15 CURVE SMOOTH",
"-66 15 OFFCURVE",
"259 640 OFFCURVE",
"429 640 CURVE SMOOTH",
"522 640 OFFCURVE",
"306 284 OFFCURVE",
"188 284 CURVE SMOOTH",
"177 284 OFFCURVE",
"162 295 OFFCURVE",
"160 318 CURVE"
);
}
);
width = 486;
}
);
unicode = 0119;
},
{
glyphname = f;
lastChange = "2016-09-16 02:24:04 +0200";
layers = (
{
layerId = "248CDC77-21EA-41B6-93B8-E98A9208AB16";
name = Regular;
paths = (
{
closed = 1;
nodes = (
"401 551 OFFCURVE",
"308 518 OFFCURVE",
"265 494 CURVE SMOOTH",
"251 487 OFFCURVE",
"251 479 OFFCURVE",
"258 479 CURVE",
"270 483 OFFCURVE",
"281 487 OFFCURVE",
"292 491 CURVE",
"272 212 OFFCURVE",
"-42 -301 OFFCURVE",
"-104 -301 CURVE SMOOTH",
"-154 -301 OFFCURVE",
"82 244 OFFCURVE",
"254 532 CURVE",
"413 643 OFFCURVE",
"651 1000 OFFCURVE",
"551 1000 CURVE SMOOTH",
"411 1000 OFFCURVE",
"-275 -318 OFFCURVE",
"-102 -318 CURVE SMOOTH",
"-6 -318 OFFCURVE",
"322 233 OFFCURVE",
"307 495 CURVE",
"394 523 OFFCURVE",
"474 534 OFFCURVE",
"511 523 CURVE",
"516 529 OFFCURVE",
"525 551 OFFCURVE",
"463 551 CURVE SMOOTH"
);
},
{
closed = 1;
nodes = (
"583 986 OFFCURVE",
"505 783 OFFCURVE",
"265 554 CURVE",
"329 684 OFFCURVE",
"521 986 OFFCURVE",
"549 986 CURVE SMOOTH"
);
}
);
width = 422;
}
);
unicode = 0066;
},
{
glyphname = g;
lastChange = "2016-09-16 02:26:42 +0200";
layers = (
{
layerId = "248CDC77-21EA-41B6-93B8-E98A9208AB16";
name = Regular;
paths = (
{
closed = 1;
nodes = (
"542 637 OFFCURVE",
"498 546 OFFCURVE",
"440 430 CURVE",
"470 522 OFFCURVE",
"492 654 OFFCURVE",
"425 654 CURVE SMOOTH",
"345 654 OFFCURVE",
"209 522 OFFCURVE",
"111 350 CURVE SMOOTH",
"23 196 OFFCURVE",
"-19 1 OFFCURVE",
"43 1 CURVE SMOOTH",
"112 1 OFFCURVE",
"285 146 OFFCURVE",
"344 243 CURVE",
"305 166 OFFCURVE",
"265 92 OFFCURVE",
"230 31 CURVE",
"-30 -88 OFFCURVE",
"-195 -397 OFFCURVE",
"-65 -397 CURVE SMOOTH",
"79 -397 OFFCURVE",
"480 413 OFFCURVE",
"566 600 CURVE SMOOTH",
"573 617 OFFCURVE",
"561 654 OFFCURVE",
"546 647 CURVE"
);
},
{
closed = 1;
nodes = (
"-138 -384 OFFCURVE",
"-18 -127 OFFCURVE",
"220 8 CURVE",
"216 1 OFFCURVE",
"4 -384 OFFCURVE",
"-67 -384 CURVE SMOOTH"
);
},
{
closed = 1;
nodes = (
"20 18 OFFCURVE",
"73 194 OFFCURVE",
"149 327 CURVE SMOOTH",
"245 495 OFFCURVE",
"368 636 OFFCURVE",
"424 636 CURVE SMOOTH",
"485 636 OFFCURVE",
"426 391 OFFCURVE",
"395 343 CURVE",
"395 343 OFFCURVE",
"396 343 OFFCURVE",
"396 343 CURVE",
"385 321 OFFCURVE",
"373 299 OFFCURVE",
"362 276 CURVE",
"260 150 OFFCURVE",
"86 18 OFFCURVE",
"55 18 CURVE SMOOTH"
);
}
);
width = 513;
}
);
unicode = 0067;
},
{
glyphname = h;
lastChange = "2016-09-16 02:32:03 +0200";
layers = (
{
layerId = "248CDC77-21EA-41B6-93B8-E98A9208AB16";
name = Regular;
paths = (
{
closed = 1;
nodes = (
"502 681 OFFCURVE",
"349 558 OFFCURVE",
"191 367 CURVE",
"230 436 OFFCURVE",
"270 504 OFFCURVE",
"309 569 CURVE",
"544 793 OFFCURVE",
"683 1004 OFFCURVE",
"600 1004 CURVE SMOOTH",
"535 1004 OFFCURVE",
"301 668 OFFCURVE",
"123 331 CURVE SMOOTH",
"95 278 OFFCURVE",
"14 96 OFFCURVE",
"-9 41 CURVE",
"-72 29 OFFCURVE",
"-125 8 OFFCURVE",
"-133 -1 CURVE SMOOTH",
"-136 -5 OFFCURVE",
"-131 -11 OFFCURVE",
"-124 -11 CURVE",
"-21 27 OFFCURVE",
"116 25 OFFCURVE",
"131 19 CURVE",
"135 25 OFFCURVE",
"143 51 OFFCURVE",
"83 51 CURVE SMOOTH",
"67 51 OFFCURVE",
"49 49 OFFCURVE",
"32 47 CURVE",
"55 95 OFFCURVE",
"108 207 OFFCURVE",
"143 278 CURVE",
"303 487 OFFCURVE",
"500 653 OFFCURVE",
"533 653 CURVE SMOOTH",
"538 653 OFFCURVE",
"510 595 OFFCURVE",
"459 492 CURVE SMOOTH",
"358 302 OFFCURVE",
"219 1 OFFCURVE",
"304 1 CURVE SMOOTH",
"436 1 OFFCURVE",
"564 198 OFFCURVE",
"507 198 CURVE",
"431 79 OFFCURVE",
"341 19 OFFCURVE",
"306 19 CURVE SMOOTH",
"239 19 OFFCURVE",
"571 585 OFFCURVE",
"571 655 CURVE SMOOTH",
"571 669 OFFCURVE",
"562 681 OFFCURVE",
"542 681 CURVE SMOOTH"
);
},
{
closed = 1;
nodes = (
"627 973 OFFCURVE",
"521 804 OFFCURVE",
"337 615 CURVE",
"460 817 OFFCURVE",
"569 973 OFFCURVE",
"595 973 CURVE SMOOTH"
);
}
);
width = 598;
}
);
unicode = 0068;
},
{
glyphname = i;
lastChange = "2016-09-16 02:11:46 +0200";
layers = (
{
layerId = "248CDC77-21EA-41B6-93B8-E98A9208AB16";
name = Regular;
paths = (
{
closed = 1;
nodes = (
"272 618 OFFCURVE",
"170 450 OFFCURVE",
"106 328 CURVE SMOOTH",
"19 162 OFFCURVE",
"-57 0 OFFCURVE",
"12 0 CURVE SMOOTH",
"119 0 OFFCURVE",
"337 259 OFFCURVE",
"296 259 CURVE",
"212 155 OFFCURVE",
"62 16 OFFCURVE",
"22 16 CURVE SMOOTH",
"-6 16 OFFCURVE",
"43 137 OFFCURVE",
"124 282 CURVE SMOOTH",
"187 396 OFFCURVE",
"294 586 OFFCURVE",
"302 603 CURVE SMOOTH",
"311 619 OFFCURVE",
"299 655 OFFCURVE",
"284 648 CURVE"
);
},
{
closed = 1;
nodes = (
"392 760 OFFCURVE",
"390 795 OFFCURVE",
"363 794 CURVE SMOOTH",
"323 793 OFFCURVE",
"318 722 OFFCURVE",
"372 733 CURVE SMOOTH",
"433 744 OFFCURVE",
"433 806 OFFCURVE",
"417 807 CURVE",
"422 786 OFFCURVE",
"403 753 OFFCURVE",
"373 751 CURVE"
);
}
);
width = 350.635;
}
);
unicode = 0069;
},
{
glyphname = j;
lastChange = "2016-09-16 02:17:19 +0200";
layers = (
{
layerId = "248CDC77-21EA-41B6-93B8-E98A9208AB16";
name = Regular;
paths = (
{
closed = 1;
nodes = (
"377 747 OFFCURVE",
"358 714 OFFCURVE",
"328 712 CURVE",
"348 721 OFFCURVE",
"345 756 OFFCURVE",
"318 755 CURVE SMOOTH",
"278 754 OFFCURVE",
"273 684 OFFCURVE",
"327 694 CURVE SMOOTH",
"389 705 OFFCURVE",
"389 767 OFFCURVE",
"372 768 CURVE"
);
},
{
closed = 1;
nodes = (
"182 543 OFFCURVE",
"-5 81 OFFCURVE",
"-200 -217 CURVE SMOOTH",
"-305 -378 OFFCURVE",
"-421 -490 OFFCURVE",
"-514 -490 CURVE SMOOTH",
"-623 -490 OFFCURVE",
"-537 -249 OFFCURVE",
"-429 -220 CURVE",
"-450 -240 OFFCURVE",
"-447 -272 OFFCURVE",
"-427 -272 CURVE SMOOTH",
"-384 -272 OFFCURVE",
"-373 -206 OFFCURVE",
"-414 -206 CURVE SMOOTH",
"-563 -206 OFFCURVE",
"-667 -502 OFFCURVE",
"-516 -502 CURVE SMOOTH",
"-188 -502 OFFCURVE",
"157 421 OFFCURVE",
"272 583 CURVE",
"278 597 OFFCURVE",
"251 608 OFFCURVE",
"223 584 CURVE"
);
}
);
width = 217;
}
);
unicode = 006A;
},
{
glyphname = k;
lastChange = "2016-09-16 02:34:27 +0200";
layers = (
{
layerId = "248CDC77-21EA-41B6-93B8-E98A9208AB16";
name = Regular;
paths = (
{
closed = 1;
nodes = (
"501 664 OFFCURVE",
"258 432 OFFCURVE",
"126 273 CURVE",
"288 570 OFFCURVE",
"488 878 OFFCURVE",
"568 974 CURVE",
"573 990 OFFCURVE",
"530 991 OFFCURVE",
"507 962 CURVE SMOOTH",
"495 948 OFFCURVE",
"184 524 OFFCURVE",
"-34 17 CURVE SMOOTH",
"-40 6 OFFCURVE",
"-10 5 OFFCURVE",
"-1 25 CURVE SMOOTH",
"29 88 OFFCURVE",
"63 156 OFFCURVE",
"100 224 CURVE",
"180 300 OFFCURVE",
"328 420 OFFCURVE",
"352 420 CURVE SMOOTH",
"377 420 OFFCURVE",
"147 14 OFFCURVE",
"254 14 CURVE SMOOTH",
"338 14 OFFCURVE",
"574 287 OFFCURVE",
"525 284 CURVE",
"483 246 OFFCURVE",
"302 30 OFFCURVE",
"251 30 CURVE SMOOTH",
"210 30 OFFCURVE",
"443 440 OFFCURVE",
"369 440 CURVE SMOOTH",
"336 440 OFFCURVE",
"264 386 OFFCURVE",
"199 327 CURVE",
"325 476 OFFCURVE",
"498 615 OFFCURVE",
"581 633 CURVE",
"575 622 OFFCURVE",
"571 595 OFFCURVE",
"592 595 CURVE SMOOTH",
"625 595 OFFCURVE",
"659 664 OFFCURVE",
"611 664 CURVE SMOOTH"
);
}
);
width = 590;
}
);
unicode = 006B;
},
{
glyphname = l;
lastChange = "2016-09-16 02:35:10 +0200";
layers = (
{
layerId = "248CDC77-21EA-41B6-93B8-E98A9208AB16";
name = Regular;
paths = (
{
closed = 1;
nodes = (
"394 318 OFFCURVE",
"87 17 OFFCURVE",
"22 17 CURVE SMOOTH",
"-8 17 OFFCURVE",
"58 173 OFFCURVE",
"144 327 CURVE SMOOTH",
"175 384 OFFCURVE",
"208 440 OFFCURVE",
"240 495 CURVE",
"468 715 OFFCURVE",
"657 1000 OFFCURVE",
"572 1000 CURVE SMOOTH",
"507 1000 OFFCURVE",
"277 670 OFFCURVE",
"100 333 CURVE SMOOTH",
"7 157 OFFCURVE",
"-51 -1 OFFCURVE",
"10 -1 CURVE SMOOTH",
"170 -1 OFFCURVE",
"509 442 OFFCURVE",
"462 442 CURVE"
);
},
{
closed = 1;
nodes = (
"600 969 OFFCURVE",
"466 744 OFFCURVE",
"265 537 CURVE",
"406 774 OFFCURVE",
"537 969 OFFCURVE",
"567 969 CURVE SMOOTH"
);
}
);
width = 433;
}
);
unicode = 006C;
},
{
glyphname = m;
lastChange = "2016-09-16 03:11:46 +0200";
layers = (
{
layerId = "248CDC77-21EA-41B6-93B8-E98A9208AB16";
name = Regular;
paths = (
{
closed = 1;
nodes = (
"651 77 OFFCURVE",
"561 18 OFFCURVE",
"526 18 CURVE SMOOTH",
"479 18 OFFCURVE",
"638 319 OFFCURVE",
"731 486 CURVE SMOOTH",
"765 547 OFFCURVE",
"808 618 OFFCURVE",
"752 618 CURVE SMOOTH",
"715 618 OFFCURVE",
"572 517 OFFCURVE",
"423 349 CURVE",
"496 486 OFFCURVE",
"569 622 OFFCURVE",
"569 653 CURVE SMOOTH",
"569 668 OFFCURVE",
"560 679 OFFCURVE",
"540 679 CURVE SMOOTH",
"495 679 OFFCURVE",
"310 527 OFFCURVE",
"135 297 CURVE",
"215 447 OFFCURVE",
"305 600 OFFCURVE",
"360 676 CURVE",
"360 676 OFFCURVE",
"357 730 OFFCURVE",
"332 711 CURVE",
"327 705 OFFCURVE",
"119 392 OFFCURVE",
"-21 41 CURVE",
"-63 33 OFFCURVE",
"-121 12 OFFCURVE",
"-129 2 CURVE SMOOTH",
"-132 -2 OFFCURVE",
"-127 -8 OFFCURVE",
"-120 -8 CURVE",
"-17 30 OFFCURVE",
"120 28 OFFCURVE",
"135 22 CURVE",
"139 28 OFFCURVE",
"146 55 OFFCURVE",
"96 55 CURVE SMOOTH",
"54 55 OFFCURVE",
"27 49 OFFCURVE",
"13 47 CURVE",
"29 85 OFFCURVE",
"51 133 OFFCURVE",
"74 179 CURVE",
"241 438 OFFCURVE",
"493 651 OFFCURVE",
"531 651 CURVE SMOOTH",
"544 651 OFFCURVE",
"468 519 OFFCURVE",
"357 277 CURVE",
"226 111 OFFCURVE",
"214 -7 OFFCURVE",
"266 21 CURVE",
"272 40 OFFCURVE",
"325 166 OFFCURVE",
"379 260 CURVE",
"516 446 OFFCURVE",
"701 580 OFFCURVE",
"739 582 CURVE",
"728 561 OFFCURVE",
"396 0 OFFCURVE",
"524 0 CURVE SMOOTH",
"657 0 OFFCURVE",
"785 197 OFFCURVE",
"728 197 CURVE"
);
}
);
width = 798.665;
}
);
unicode = 006D;
},
{
glyphname = n;
lastChange = "2016-09-16 02:57:20 +0200";
layers = (
{
layerId = "248CDC77-21EA-41B6-93B8-E98A9208AB16";
name = Regular;
paths = (
{
closed = 1;
nodes = (
"432 78 OFFCURVE",
"343 19 OFFCURVE",
"308 19 CURVE SMOOTH",
"240 19 OFFCURVE",
"586 585 OFFCURVE",
"586 654 CURVE SMOOTH",
"586 669 OFFCURVE",
"577 680 OFFCURVE",
"557 680 CURVE SMOOTH",
"512 680 OFFCURVE",
"327 528 OFFCURVE",
"151 298 CURVE",
"231 448 OFFCURVE",
"322 601 OFFCURVE",
"377 677 CURVE",
"377 677 OFFCURVE",
"373 731 OFFCURVE",
"349 712 CURVE",
"343 706 OFFCURVE",
"137 397 OFFCURVE",
"-3 45 CURVE",
"-48 37 OFFCURVE",
"-99 18 OFFCURVE",
"-107 9 CURVE SMOOTH",
"-110 5 OFFCURVE",
"-105 -1 OFFCURVE",
"-98 -1 CURVE",
"5 37 OFFCURVE",
"142 30 OFFCURVE",
"157 24 CURVE",
"161 30 OFFCURVE",
"165 59 OFFCURVE",
"120 59 CURVE SMOOTH",
"79 59 OFFCURVE",
"49 54 OFFCURVE",
"30 51 CURVE",
"48 94 OFFCURVE",
"71 142 OFFCURVE",
"98 194 CURVE",
"264 440 OFFCURVE",
"510 652 OFFCURVE",
"548 652 CURVE SMOOTH",
"553 652 OFFCURVE",
"525 594 OFFCURVE",
"474 492 CURVE SMOOTH",
"373 302 OFFCURVE",
"220 1 OFFCURVE",
"305 1 CURVE SMOOTH",
"438 1 OFFCURVE",
"566 198 OFFCURVE",
"509 198 CURVE"
);
}
);
width = 604.888;
}
);
unicode = 006E;
},
{
glyphname = nacute;
lastChange = "2016-09-16 03:22:06 +0200";
layers = (
{
layerId = "248CDC77-21EA-41B6-93B8-E98A9208AB16";
name = Regular;
paths = (
{
closed = 1;
nodes = (
"500.949 670.388 OFFCURVE",
"291.991 495.656 OFFCURVE",
"106.199 237.764 CURVE SMOOTH",
"66.72 186.629 OFFCURVE",
"29.3841 108.845 OFFCURVE",
"65.1649 147.093 CURVE",
"231.207 408.187 OFFCURVE",
"500.595 642.401 OFFCURVE",
"540.256 642.401 CURVE SMOOTH",
"545.416 642.401 OFFCURVE",
"516.711 584.285 OFFCURVE",
"465.615 481.51 CURVE SMOOTH",
"365.205 291.808 OFFCURVE",
"212.27 -9 OFFCURVE",
"296.993 -9 CURVE SMOOTH",
"429.942 -9 OFFCURVE",
"557.67 188.076 OFFCURVE",
"500.686 188.076 CURVE",
"424.164 68.2253 OFFCURVE",
"334.65 9.02285 OFFCURVE",
"299.559 9.02285 CURVE SMOOTH",
"232.04 9.02285 OFFCURVE",
"577.86 574.992 OFFCURVE",
"577.86 644.297 CURVE SMOOTH",
"577.86 658.715 OFFCURVE",
"568.813 670.388 OFFCURVE",
"548.845 670.388 CURVE SMOOTH"
);
},
{
closed = 1;
nodes = (
"-14 44.4411 OFFCURVE",
"-126 6.33808 OFFCURVE",
"-137 -7 CURVE SMOOTH",
"-140 -11 OFFCURVE",
"-135 -17 OFFCURVE",
"-128 -17 CURVE",
"-25 21.3415 OFFCURVE",
"112.075 19.1703 OFFCURVE",
"126.638 12.7481 CURVE",
"131.35 19.1703 OFFCURVE",
"139.162 44.4411 OFFCURVE",
"79.2489 44.4411 CURVE SMOOTH"
);
},
{
closed = 1;
nodes = (
"335.26 696.297 OFFCURVE",
"122.73 380.708 OFFCURVE",
"-17 24.1584 CURVE",
"17.2835 30.2005 LINE",
"96.3603 216.954 OFFCURVE",
"279.751 543.31 OFFCURVE",
"369.002 667.222 CURVE",
"369.002 667.222 OFFCURVE",
"365.302 720.567 OFFCURVE",
"341.25 702.286 CURVE"
);
},
{
closed = 1;
nodes = (
"528 791 OFFCURVE",
"473 730 OFFCURVE",
"456 712 CURVE",
"478 694 OFFCURVE",
"561 788 OFFCURVE",
"572 836 CURVE SMOOTH",
"577 856 OFFCURVE",
"563 861 OFFCURVE",
"555 861 CURVE"
);
}
);
width = 600;
}
);
leftMetricsKey = n;
rightMetricsKey = n;
unicode = 0144;
},
{
glyphname = o;
lastChange = "2016-09-16 02:44:00 +0200";
layers = (
{
layerId = "248CDC77-21EA-41B6-93B8-E98A9208AB16";
name = Regular;
paths = (
{
closed = 1;
nodes = (
"187 661 OFFCURVE",
"-116 1 OFFCURVE",
"89 1 CURVE SMOOTH",
"324 1 OFFCURVE",
"627 661 OFFCURVE",
"426 661 CURVE SMOOTH"
);
},
{
closed = 1;
nodes = (
"-60 17 OFFCURVE",
"260 644 OFFCURVE",
"426 644 CURVE SMOOTH",
"573 644 OFFCURVE",
"255 17 OFFCURVE",
"88 17 CURVE SMOOTH"
);
}
);
width = 481;
}
);
unicode = 006F;
},
{
glyphname = oacute;
lastChange = "2016-09-16 03:22:12 +0200";
layers = (
{
layerId = "248CDC77-21EA-41B6-93B8-E98A9208AB16";
name = Regular;
paths = (
{
closed = 1;
nodes = (
"187 659 OFFCURVE",
"-117 -1 OFFCURVE",
"88 -1 CURVE SMOOTH",
"324 -1 OFFCURVE",
"627 659 OFFCURVE",
"426 659 CURVE SMOOTH"
);
},
{
closed = 1;
nodes = (
"-59 15 OFFCURVE",
"261 642 OFFCURVE",
"427 642 CURVE SMOOTH",
"574 642 OFFCURVE",
"256 15 OFFCURVE",
"89 15 CURVE SMOOTH"
);
},
{
closed = 1;
nodes = (
"530 791 OFFCURVE",
"475 730 OFFCURVE",
"458 712 CURVE",
"480 694 OFFCURVE",
"563 788 OFFCURVE",
"574 836 CURVE SMOOTH",
"579 856 OFFCURVE",
"565 861 OFFCURVE",
"557 861 CURVE"
);
}
);
width = 558;
}
);
unicode = 00F3;
},
{
glyphname = p;
lastChange = "2016-09-16 02:45:58 +0200";
layers = (
{
layerId = "248CDC77-21EA-41B6-93B8-E98A9208AB16";
name = Regular;
paths = (
{
closed = 1;
nodes = (
"428 651 OFFCURVE",
"327 565 OFFCURVE",
"245 466 CURVE",
"288 541 OFFCURVE",
"324 599 OFFCURVE",
"348 627 CURVE",
"357 652 OFFCURVE",
"308 647 OFFCURVE",
"287 616 CURVE SMOOTH",
"276 600 OFFCURVE",
"-37 72 OFFCURVE",
"-219 -409 CURVE",
"-225 -420 OFFCURVE",
"-199 -420 OFFCURVE",
"-189 -401 CURVE",
"-122 -237 OFFCURVE",
"50 111 OFFCURVE",
"186 362 CURVE",
"258 473 OFFCURVE",
"410 634 OFFCURVE",
"477 634 CURVE SMOOTH",
"525 634 OFFCURVE",
"494 454 OFFCURVE",
"396 288 CURVE SMOOTH",
"306 134 OFFCURVE",
"183 20 OFFCURVE",
"136 20 CURVE SMOOTH",
"87 20 OFFCURVE",
"226 290 OFFCURVE",
"390 350 CURVE",
"388 357 OFFCURVE",
"376 359 OFFCURVE",
"350 348 CURVE SMOOTH",
"194 278 OFFCURVE",
"40 0 OFFCURVE",
"145 0 CURVE SMOOTH",
"208 0 OFFCURVE",
"350 125 OFFCURVE",
"427 253 CURVE SMOOTH",
"543 445 OFFCURVE",
"563 651 OFFCURVE",
"480 651 CURVE SMOOTH"
);
}
);
width = 535.665;
}
);
unicode = 0070;
},
{
glyphname = q;
lastChange = "2016-09-16 02:47:20 +0200";
layers = (
{
layerId = "248CDC77-21EA-41B6-93B8-E98A9208AB16";
name = Regular;
paths = (
{
closed = 1;
nodes = (
"527 613 OFFCURVE",
"488 548 OFFCURVE",
"431 446 CURVE",
"459 536 OFFCURVE",
"475 653 OFFCURVE",
"412 653 CURVE SMOOTH",
"331 653 OFFCURVE",
"195 520 OFFCURVE",
"97 348 CURVE SMOOTH",
"10 195 OFFCURVE",
"-33 0 OFFCURVE",
"30 0 CURVE SMOOTH",
"88 0 OFFCURVE",
"224 106 OFFCURVE",
"299 198 CURVE",
"207 18 OFFCURVE",
"104 -199 OFFCURVE",
"25 -407 CURVE",
"19 -418 OFFCURVE",
"45 -418 OFFCURVE",
"55 -398 CURVE",
"155 -153 OFFCURVE",
"491 508 OFFCURVE",
"592 630 CURVE",
"601 654 OFFCURVE",
"552 650 OFFCURVE",
"531 618 CURVE SMOOTH"
);
},
{
closed = 1;
nodes = (
"6 16 OFFCURVE",
"59 193 OFFCURVE",
"136 326 CURVE SMOOTH",
"231 493 OFFCURVE",
"354 635 OFFCURVE",
"410 635 CURVE SMOOTH",
"458 635 OFFCURVE",
"432 483 OFFCURVE",
"403 395 CURVE",
"379 350 OFFCURVE",
"353 301 OFFCURVE",
"325 247 CURVE",
"222 130 OFFCURVE",
"70 16 OFFCURVE",
"41 16 CURVE SMOOTH"
);
}
);
width = 473;
}
);
unicode = 0071;
},
{
glyphname = r;
lastChange = "2016-09-16 02:49:17 +0200";
layers = (
{
layerId = "248CDC77-21EA-41B6-93B8-E98A9208AB16";
name = Regular;
paths = (
{
closed = 1;
nodes = (
"511 527 OFFCURVE",
"436 447 OFFCURVE",
"388 447 CURVE SMOOTH",
"366 447 OFFCURVE",
"362 488 OFFCURVE",
"369 519 CURVE",
"498 663 OFFCURVE",
"575 772 OFFCURVE",
"523 772 CURVE SMOOTH",
"472 772 OFFCURVE",
"355 622 OFFCURVE",
"342 518 CURVE",
"293 468 OFFCURVE",
"187 363 OFFCURVE",
"106 254 CURVE",
"176 404 OFFCURVE",
"251 541 OFFCURVE",
"321 630 CURVE",
"334 649 OFFCURVE",
"294 656 OFFCURVE",
"269 627 CURVE",
"253 601 OFFCURVE",
"67 308 OFFCURVE",
"-24 24 CURVE",
"-76 12 OFFCURVE",
"-118 -5 OFFCURVE",
"-124 -13 CURVE SMOOTH",
"-127 -17 OFFCURVE",
"-122 -23 OFFCURVE",
"-115 -23 CURVE",
"-12 16 OFFCURVE",
"125 14 OFFCURVE",
"140 7 CURVE",
"144 14 OFFCURVE",
"152 39 OFFCURVE",
"92 39 CURVE SMOOTH",
"64 39 OFFCURVE",
"34 35 OFFCURVE",
"6 30 CURVE",
"24 73 OFFCURVE",
"42 116 OFFCURVE",
"61 158 CURVE",
"149 285 OFFCURVE",
"264 410 OFFCURVE",
"343 490 CURVE",
"342 466 OFFCURVE",
"353 434 OFFCURVE",
"384 434 CURVE SMOOTH",
"464 434 OFFCURVE",
"554 552 OFFCURVE",
"531 552 CURVE"
);
},
{
closed = 1;
nodes = (
"554 762 OFFCURVE",
"465 666 OFFCURVE",
"372 549 CURVE",
"406 644 OFFCURVE",
"493 762 OFFCURVE",
"523 762 CURVE SMOOTH"
);
}
);
width = 419;
}
);
unicode = 0072;
},
{
glyphname = s;
lastChange = "2016-09-16 02:59:30 +0200";
layers = (
{
layerId = "248CDC77-21EA-41B6-93B8-E98A9208AB16";
name = Regular;
paths = (
{
closed = 1;
nodes = (
"290.909 661.033 OFFCURVE",
"268.909 453.699 OFFCURVE",
"247.139 267.285 CURVE SMOOTH",
"231.193 130.829 OFFCURVE",
"176.289 14.0865 OFFCURVE",
"90.901 14.0865 CURVE SMOOTH",
"-33 14.0865 OFFCURVE",
"39.1681 283.846 OFFCURVE",
"202.112 283.846 CURVE",
"206.429 292.153 OFFCURVE",
"190.971 299.88 OFFCURVE",
"171.445 299.88 CURVE SMOOTH",
"10.3304 299.88 OFFCURVE",
"-81 -3 OFFCURVE",
"97.212 -3 CURVE SMOOTH",
"209.292 -3 OFFCURVE",
"269.534 122.429 OFFCURVE",
"286.894 266.981 CURVE SMOOTH",
"308.401 446.191 OFFCURVE",
"337.693 644.981 OFFCURVE",
"450.141 644.981 CURVE SMOOTH",
"538.497 644.981 OFFCURVE",
"486.837 465.225 OFFCURVE",
"408.293 430.035 CURVE",
"429.839 448.517 OFFCURVE",
"424.541 478.817 OFFCURVE",
"407.418 478.817 CURVE SMOOTH",
"370.15 478.817 OFFCURVE",
"355.08 413.302 OFFCURVE",
"391.755 413.302 CURVE SMOOTH",
"495.379 413.302 OFFCURVE",
"589.631 661.033 OFFCURVE",
"450.207 661.033 CURVE SMOOTH"
);
}
);
width = 465;
}
);
unicode = 0073;
},
{
glyphname = sacute;
lastChange = "2016-09-16 03:01:02 +0200";
layers = (
{
layerId = "248CDC77-21EA-41B6-93B8-E98A9208AB16";
name = Regular;
paths = (
{
closed = 1;
nodes = (
"291 661 OFFCURVE",
"269 454 OFFCURVE",
"247 267 CURVE SMOOTH",
"231 131 OFFCURVE",
"176 14 OFFCURVE",
"91 14 CURVE SMOOTH",
"-33 14 OFFCURVE",
"39 284 OFFCURVE",
"202 284 CURVE",
"206 292 OFFCURVE",
"191 300 OFFCURVE",
"171 300 CURVE SMOOTH",
"10 300 OFFCURVE",
"-81 -3 OFFCURVE",
"97 -3 CURVE SMOOTH",
"209 -3 OFFCURVE",
"270 122 OFFCURVE",
"287 267 CURVE SMOOTH",
"308 446 OFFCURVE",
"338 645 OFFCURVE",
"450 645 CURVE SMOOTH",
"538 645 OFFCURVE",
"487 465 OFFCURVE",
"408 430 CURVE",
"430 449 OFFCURVE",
"425 479 OFFCURVE",
"407 479 CURVE SMOOTH",
"370 479 OFFCURVE",
"355 413 OFFCURVE",
"392 413 CURVE SMOOTH",
"495 413 OFFCURVE",
"590 661 OFFCURVE",
"450 661 CURVE SMOOTH"
);
},
{
closed = 1;
nodes = (
"592 861 OFFCURVE",
"605 851 OFFCURVE",
"601 831 CURVE SMOOTH",
"590 777 OFFCURVE",
"499 698 OFFCURVE",
"473 698 CURVE SMOOTH",
"457 698 OFFCURVE",
"527 747 OFFCURVE",
"577 861 CURVE"
);
}
);
width = 462;
}
);
leftMetricsKey = s;
unicode = 015B;
},
{
glyphname = t;
lastChange = "2016-09-16 03:03:57 +0200";
layers = (
{
layerId = "248CDC77-21EA-41B6-93B8-E98A9208AB16";
name = Regular;
paths = (
{
closed = 1;
nodes = (
"395 318 OFFCURVE",
"99.9735 9.01592 OFFCURVE",
"32.9071 9.01592 CURVE SMOOTH",
"2.07509 9.01592 OFFCURVE",
"87.3114 218.814 OFFCURVE",
"175.582 377.637 CURVE SMOOTH",
"186.276 396.878 OFFCURVE",
"196.792 415.643 OFFCURVE",
"207.157 434.007 CURVE",
"324.621 550.327 OFFCURVE",
"412 649 OFFCURVE",
"474 746 CURVE",
"557 750 OFFCURVE",
"626 752 OFFCURVE",
"646 753 CURVE SMOOTH",
"680 755 OFFCURVE",
"681 776 OFFCURVE",
"676 776 CURVE",
"657 772 OFFCURVE",
"579 770 OFFCURVE",
"489 770 CURVE",
"535 847 OFFCURVE",
"549 899 OFFCURVE",
"512 899 CURVE SMOOTH",
"484 899 OFFCURVE",
"432 850 OFFCURVE",
"370 769 CURVE",
"285 768 OFFCURVE",
"206 767 OFFCURVE",
"169 764 CURVE SMOOTH",
"129 760 OFFCURVE",
"103 729 OFFCURVE",
"119 726 CURVE",
"146 731 OFFCURVE",
"244 737 OFFCURVE",
"349 741 CURVE",
"286 656 OFFCURVE",
"233.303 572.858 OFFCURVE",
"165.605 445.184 CURVE SMOOTH",
"29.2152 187.983 OFFCURVE",
"-37 -9 OFFCURVE",
"21.3773 -9 CURVE SMOOTH",
"185.526 -9 OFFCURVE",
"514 446 OFFCURVE",
"465 446 CURVE"
);
},
{
closed = 1;
nodes = (
"525 874 OFFCURVE",
"508 833 OFFCURVE",
"469 770 CURVE SMOOTH",
"451 770 OFFCURVE",
"433 769 OFFCURVE",
"414 769 CURVE",
"462 837 OFFCURVE",
"496 874 OFFCURVE",
"511 874 CURVE SMOOTH"
);
},
{
closed = 1;
nodes = (
"416 744 OFFCURVE",
"435 745 OFFCURVE",
"453 746 CURVE",
"400 664 OFFCURVE",
"326 576 OFFCURVE",
"224 469 CURVE",
"295 593 OFFCURVE",
"347 671 OFFCURVE",
"396 743 CURVE"
);
}
);
width = 446;
}
);
unicode = 0074;
},
{
glyphname = u;
lastChange = "2016-09-16 01:28:38 +0200";
layers = (
{
layerId = "248CDC77-21EA-41B6-93B8-E98A9208AB16";
name = Regular;
paths = (
{
closed = 1;
nodes = (
"478 164 OFFCURVE",
"366 19 OFFCURVE",
"301 19 CURVE SMOOTH",
"273 19 OFFCURVE",
"361 208 OFFCURVE",
"443 368 CURVE",
"492 450 OFFCURVE",
"566 558 OFFCURVE",
"574 612 CURVE SMOOTH",
"577 633 OFFCURVE",
"569 657 OFFCURVE",
"553 657 CURVE SMOOTH",
"538 657 OFFCURVE",
"465 486 OFFCURVE",
"393 343 CURVE",
"334 268 OFFCURVE",
"111 21 OFFCURVE",
"51 21 CURVE SMOOTH",
"-12 21 OFFCURVE",
"440 682 OFFCURVE",
"302 656 CURVE",
"286 526 OFFCURVE",
"-73 4 OFFCURVE",
"43 4 CURVE SMOOTH",
"136 4 OFFCURVE",
"268 156 OFFCURVE",
"345 256 CURVE",
"302 170 OFFCURVE",
"235 1 OFFCURVE",
"294 1 CURVE SMOOTH",
"410 1 OFFCURVE",
"553 194 OFFCURVE",
"494 194 CURVE"
);
}
);
width = 595.256;
}
);
unicode = 0075;
},
{
glyphname = v;
lastChange = "2016-09-16 03:06:12 +0200";
layers = (
{
layerId = "248CDC77-21EA-41B6-93B8-E98A9208AB16";
name = Regular;
paths = (
{
closed = 1;
nodes = (
"428.638 566.641 OFFCURVE",
"119.958 185.313 OFFCURVE",
"39.7231 37.7291 CURVE",
"127.351 278.497 OFFCURVE",
"207.09 433.415 OFFCURVE",
"299.896 656.113 CURVE",
"299.896 682.227 OFFCURVE",
"246.984 653.349 OFFCURVE",
"246.984 653.349 CURVE SMOOTH",
"246.984 653.349 OFFCURVE",
"87.8862 322.295 OFFCURVE",
"0 4.70588 CURVE",
"0 -11 OFFCURVE",
"34.4844 3.9026 OFFCURVE",
"40.0654 6.56176 CURVE",
"139.213 169.11 OFFCURVE",
"387.081 474.543 OFFCURVE",
"539.165 643.149 CURVE",
"539.165 643.149 OFFCURVE",
"549.314 659.996 OFFCURVE",
"523.963 657.825 CURVE"
);
}
);
width = 416;
}
);
unicode = 0076;
},
{
glyphname = w;
lastChange = "2016-09-16 03:12:00 +0200";
layers = (
{
layerId = "248CDC77-21EA-41B6-93B8-E98A9208AB16";
name = Regular;
paths = (
{
closed = 1;
nodes = (
"664 335 OFFCURVE",
"676 353 OFFCURVE",
"667 360 CURVE",
"640 360 OFFCURVE",
"607 387 OFFCURVE",
"601 452 CURVE",
"663 627 OFFCURVE",
"707 799 OFFCURVE",
"639 774 CURVE SMOOTH",
"594 758 OFFCURVE",
"554 568 OFFCURVE",
"571 444 CURVE",
"459 202 OFFCURVE",
"287 22 OFFCURVE",
"240 22 CURVE SMOOTH",
"161 22 OFFCURVE",
"342 427 OFFCURVE",
"394 495 CURVE",
"394 522 OFFCURVE",
"353 501 OFFCURVE",
"336 480 CURVE",
"335 479 OFFCURVE",
"335 478 OFFCURVE",
"334 477 CURVE",
"236 364 OFFCURVE",
"67 180 OFFCURVE",
"-11 39 CURVE",
"89 269 OFFCURVE",
"248 553 OFFCURVE",
"342 655 CURVE",
"342 681 OFFCURVE",
"282 655 OFFCURVE",
"282 655 CURVE SMOOTH",
"282 655 OFFCURVE",
"45 303 OFFCURVE",
"-48 17 CURVE",
"-70 13 OFFCURVE",
"-122 -5 OFFCURVE",
"-129 -13 CURVE SMOOTH",
"-133 -17 OFFCURVE",
"-127 -23 OFFCURVE",
"-120 -23 CURVE",
"-22 11 OFFCURVE",
"101 7 OFFCURVE",
"116 0 CURVE",
"120 7 OFFCURVE",
"128 32 OFFCURVE",
"68 32 CURVE SMOOTH",
"46 32 OFFCURVE",
"23 30 OFFCURVE",
"1 26 CURVE",
"83 156 OFFCURVE",
"182 270 OFFCURVE",
"295 400 CURVE",
"226 252 OFFCURVE",
"137 1 OFFCURVE",
"232 1 CURVE SMOOTH",
"333 1 OFFCURVE",
"486 201 OFFCURVE",
"580 402 CURVE",
"589 362 OFFCURVE",
"613 335 OFFCURVE",
"644 335 CURVE SMOOTH"
);
},
{
closed = 1;
nodes = (
"672 772 OFFCURVE",
"643 644 OFFCURVE",
"597 501 CURVE",
"593 612 OFFCURVE",
"615 751 OFFCURVE",
"642 761 CURVE SMOOTH"
);
}
);
width = 623.06;
}
);
unicode = 0077;
},
{
glyphname = x;
lastChange = "2016-09-16 03:14:20 +0200";
layers = (
{
layerId = "248CDC77-21EA-41B6-93B8-E98A9208AB16";
name = Regular;
paths = (
{
closed = 1;
nodes = (
"496 644 OFFCURVE",
"496 667 OFFCURVE",
"468 650 CURVE",
"447 634 OFFCURVE",
"338 522 OFFCURVE",
"224 394 CURVE",
"227 515 OFFCURVE",
"230 623 OFFCURVE",
"230 641 CURVE SMOOTH",
"231 684 OFFCURVE",
"177 641 OFFCURVE",
"177 641 CURVE",
"180 344 LINE",
"66 212 OFFCURVE",
"-44 73 OFFCURVE",
"-65 8 CURVE",
"-65 -4 OFFCURVE",
"-56 -10 OFFCURVE",
"-52 -2 CURVE",
"-26 52 OFFCURVE",
"72 176 OFFCURVE",
"181 303 CURVE",
"184 5 LINE",
"184 5 OFFCURVE",
"216 -24 OFFCURVE",
"216 7 CURVE",
"216 30 OFFCURVE",
"220 196 OFFCURVE",
"223 352 CURVE",
"333 478 OFFCURVE",
"444 598 OFFCURVE",
"496 644 CURVE"
);
}
);
width = 376;
}
);
unicode = 0078;
},
{
glyphname = y;
lastChange = "2016-09-16 03:15:44 +0200";
layers = (
{
layerId = "248CDC77-21EA-41B6-93B8-E98A9208AB16";
name = Regular;
paths = (
{
closed = 1;
nodes = (
"491 653 OFFCURVE",
"427 488 OFFCURVE",
"355 345 CURVE",
"297 270 OFFCURVE",
"56 17 OFFCURVE",
"-4 17 CURVE SMOOTH",
"-67 17 OFFCURVE",
"385 678 OFFCURVE",
"247 652 CURVE",
"231 522 OFFCURVE",
"-128 0 OFFCURVE",
"-12 0 CURVE SMOOTH",
"93 0 OFFCURVE",
"286 232 OFFCURVE",
"331 294 CURVE",
"321 266 OFFCURVE",
"199 43 OFFCURVE",
"113 -90 CURVE SMOOTH",
"-13 -282 OFFCURVE",
"-127 -392 OFFCURVE",
"-207 -392 CURVE SMOOTH",
"-344 -392 OFFCURVE",
"-265 -120 OFFCURVE",
"-97 -74 CURVE",
"-105 -88 OFFCURVE",
"-110 -111 OFFCURVE",
"-89 -111 CURVE SMOOTH",
"-54 -111 OFFCURVE",
"-31 -53 OFFCURVE",
"-69 -53 CURVE SMOOTH",
"-283 -53 OFFCURVE",
"-390 -406 OFFCURVE",
"-205 -406 CURVE SMOOTH",
"-92 -406 OFFCURVE",
"9 -289 OFFCURVE",
"138 -106 CURVE SMOOTH",
"259 66 OFFCURVE",
"507 551 OFFCURVE",
"529 616 CURVE",
"526 640 OFFCURVE",
"517 653 OFFCURVE",
"506 653 CURVE SMOOTH"
);
}
);
width = 459;
}
);
unicode = 0079;
},
{
glyphname = z;
lastChange = "2016-09-16 03:18:19 +0200";
layers = (
{
layerId = "248CDC77-21EA-41B6-93B8-E98A9208AB16";
name = Regular;
paths = (
{
closed = 1;
nodes = (
"503 644 OFFCURVE",
"463 601 OFFCURVE",
"415 537 CURVE",
"379 512 OFFCURVE",
"343 491 OFFCURVE",
"327 491 CURVE SMOOTH",
"292 491 OFFCURVE",
"413 693 OFFCURVE",
"324 693 CURVE SMOOTH",
"199 693 OFFCURVE",
"52 409 OFFCURVE",
"93 415 CURVE",
"93 415 OFFCURVE",
"253 676 OFFCURVE",
"324 676 CURVE SMOOTH",
"352 676 OFFCURVE",
"256 474 OFFCURVE",
"318 474 CURVE SMOOTH",
"338 474 OFFCURVE",
"359 480 OFFCURVE",
"381 490 CURVE",
"340 432 OFFCURVE",
"295 363 OFFCURVE",
"251 295 CURVE",
"93 232 OFFCURVE",
"-62 -19 OFFCURVE",
"25 -19 CURVE SMOOTH",
"72 -19 OFFCURVE",
"170 129 OFFCURVE",
"269 282 CURVE",
"286 290 OFFCURVE",
"303 294 OFFCURVE",
"318 294 CURVE SMOOTH",
"359 294 OFFCURVE",
"170 0 OFFCURVE",
"282 0 CURVE SMOOTH",
"363 0 OFFCURVE",
"498 171 OFFCURVE",
"442 171 CURVE",
"428 146 OFFCURVE",
"321 13 OFFCURVE",
"281 13 CURVE SMOOTH",
"224 13 OFFCURVE",
"416 309 OFFCURVE",
"318 309 CURVE SMOOTH",
"306 309 OFFCURVE",
"295 308 OFFCURVE",
"284 305 CURVE",
"330 379 OFFCURVE",
"377 452 OFFCURVE",
"417 509 CURVE",
"498 559 OFFCURVE",
"569 644 OFFCURVE",
"526 644 CURVE SMOOTH"
);
},
{
closed = 1;
nodes = (
"-14 -7 OFFCURVE",
"109 182 OFFCURVE",
"228 260 CURVE",
"136 119 OFFCURVE",
"52 -7 OFFCURVE",
"24 -7 CURVE SMOOTH"
);
}
);
width = 514;
}
);
unicode = 007A;
},
{
glyphname = zacute;
lastChange = "2016-09-16 03:22:16 +0200";
layers = (
{
layerId = "248CDC77-21EA-41B6-93B8-E98A9208AB16";
name = Regular;
paths = (
{
closed = 1;
nodes = (
"507 791 OFFCURVE",
"452 730 OFFCURVE",
"435 712 CURVE",
"457 694 OFFCURVE",
"540 788 OFFCURVE",
"551 836 CURVE SMOOTH",
"556 856 OFFCURVE",
"542 861 OFFCURVE",
"534 861 CURVE"
);
},
{
closed = 1;
nodes = (
"503 644 OFFCURVE",
"463 601 OFFCURVE",
"415 537 CURVE",
"379 512 OFFCURVE",
"343 491 OFFCURVE",
"327 491 CURVE SMOOTH",
"292 491 OFFCURVE",
"413 693 OFFCURVE",
"324 693 CURVE SMOOTH",
"199 693 OFFCURVE",
"52 409 OFFCURVE",
"93 415 CURVE",
"93 415 OFFCURVE",
"253 676 OFFCURVE",
"324 676 CURVE SMOOTH",
"352 676 OFFCURVE",
"256 474 OFFCURVE",
"318 474 CURVE SMOOTH",
"338 474 OFFCURVE",
"359 480 OFFCURVE",
"381 490 CURVE",
"340 432 OFFCURVE",
"295 363 OFFCURVE",
"251 295 CURVE",
"93 232 OFFCURVE",
"-62 -19 OFFCURVE",
"25 -19 CURVE SMOOTH",
"72 -19 OFFCURVE",
"170 129 OFFCURVE",
"269 282 CURVE",
"286 290 OFFCURVE",
"303 294 OFFCURVE",
"318 294 CURVE SMOOTH",
"359 294 OFFCURVE",
"170 0 OFFCURVE",
"282 0 CURVE SMOOTH",
"363 0 OFFCURVE",
"498 171 OFFCURVE",
"442 171 CURVE",
"428 146 OFFCURVE",
"321 13 OFFCURVE",
"281 13 CURVE SMOOTH",
"224 13 OFFCURVE",
"416 309 OFFCURVE",
"318 309 CURVE SMOOTH",
"306 309 OFFCURVE",
"295 308 OFFCURVE",
"284 305 CURVE",
"330 379 OFFCURVE",
"377 452 OFFCURVE",
"417 509 CURVE",
"498 559 OFFCURVE",
"569 644 OFFCURVE",
"526 644 CURVE SMOOTH"
);
},
{
closed = 1;
nodes = (
"-14 -7 OFFCURVE",
"109 182 OFFCURVE",
"228 260 CURVE",
"136 119 OFFCURVE",
"52 -7 OFFCURVE",
"24 -7 CURVE SMOOTH"
);
}
);
width = 514;
}
);
leftMetricsKey = z;
rightMetricsKey = z;
unicode = 017A;
},
{
glyphname = zdotaccent;
lastChange = "2016-09-16 03:18:25 +0200";
layers = (
{
layerId = "248CDC77-21EA-41B6-93B8-E98A9208AB16";
name = Regular;
paths = (
{
closed = 1;
nodes = (
"503 644 OFFCURVE",
"463 601 OFFCURVE",
"415 537 CURVE",
"379 512 OFFCURVE",
"343 491 OFFCURVE",
"327 491 CURVE SMOOTH",
"292 491 OFFCURVE",
"413 693 OFFCURVE",
"324 693 CURVE SMOOTH",
"199 693 OFFCURVE",
"52 409 OFFCURVE",
"93 415 CURVE",
"93 415 OFFCURVE",
"253 676 OFFCURVE",
"324 676 CURVE SMOOTH",
"352 676 OFFCURVE",
"256 474 OFFCURVE",
"318 474 CURVE SMOOTH",
"338 474 OFFCURVE",
"359 480 OFFCURVE",
"381 490 CURVE",
"340 432 OFFCURVE",
"295 363 OFFCURVE",
"251 295 CURVE",
"93 232 OFFCURVE",
"-62 -19 OFFCURVE",
"25 -19 CURVE SMOOTH",
"72 -19 OFFCURVE",
"170 129 OFFCURVE",
"269 282 CURVE",
"286 290 OFFCURVE",
"303 294 OFFCURVE",
"318 294 CURVE SMOOTH",
"359 294 OFFCURVE",
"170 0 OFFCURVE",
"282 0 CURVE SMOOTH",
"363 0 OFFCURVE",
"498 171 OFFCURVE",
"442 171 CURVE",
"428 146 OFFCURVE",
"321 13 OFFCURVE",
"281 13 CURVE SMOOTH",
"224 13 OFFCURVE",
"416 309 OFFCURVE",
"318 309 CURVE SMOOTH",
"306 309 OFFCURVE",
"295 308 OFFCURVE",
"284 305 CURVE",
"330 379 OFFCURVE",
"377 452 OFFCURVE",
"417 509 CURVE",
"498 559 OFFCURVE",
"569 644 OFFCURVE",
"526 644 CURVE SMOOTH"
);
},
{
closed = 1;
nodes = (
"-14 -7 OFFCURVE",
"109 182 OFFCURVE",
"228 260 CURVE",
"136 119 OFFCURVE",
"52 -7 OFFCURVE",
"24 -7 CURVE SMOOTH"
);
},
{
closed = 1;
nodes = (
"504 760 OFFCURVE",
"502 795 OFFCURVE",
"475 794 CURVE SMOOTH",
"435 793 OFFCURVE",
"430 722 OFFCURVE",
"484 733 CURVE SMOOTH",
"545 744 OFFCURVE",
"545 806 OFFCURVE",
"529 807 CURVE",
"534 786 OFFCURVE",
"515 753 OFFCURVE",
"485 751 CURVE"
);
}
);
width = 514;
}
);
leftMetricsKey = z;
rightMetricsKey = z;
unicode = 017C;
},
